<?xml version="1.0" encoding="UTF-8" standalone="no"?>
<!-- Created with Inkscape (http://www.inkscape.org/) -->

<svg
   xmlns:dc="http://purl.org/dc/elements/1.1/"
   xmlns:cc="http://creativecommons.org/ns#"
   xmlns:rdf="http://www.w3.org/1999/02/22-rdf-syntax-ns#"
   xmlns:svg="http://www.w3.org/2000/svg"
   xmlns="http://www.w3.org/2000/svg"
   xmlns:sodipodi="http://sodipodi.sourceforge.net/DTD/sodipodi-0.dtd"
   xmlns:inkscape="http://www.inkscape.org/namespaces/inkscape"
   width="24"
   height="24"
   viewBox="0 0 24 24.000001"
   id="svg2"
   version="1.1"
   inkscape:version="0.91 r13725"
   sodipodi:docname="app-controls.svg"
   inkscape:export-filename="/Users/whiskey/Programs/tm/src/AppControls/sprite.png"
   inkscape:export-xdpi="90"
   inkscape:export-ydpi="90">
  <defs
     id="defs4" />
  <sodipodi:namedview
     id="base"
     pagecolor="#ffffff"
     bordercolor="#666666"
     borderopacity="1.0"
     inkscape:pageopacity="0.0"
     inkscape:pageshadow="2"
     inkscape:zoom="8"
     inkscape:cx="26.890965"
     inkscape:cy="-33.236822"
     inkscape:document-units="px"
     inkscape:current-layer="layer1"
     showgrid="false"
     inkscape:window-width="1280"
     inkscape:window-height="698"
     inkscape:window-x="0"
     inkscape:window-y="0"
     inkscape:window-maximized="1"
     units="px"
     inkscape:object-nodes="true"
     inkscape:snap-intersection-paths="true"
     inkscape:object-paths="true"
     inkscape:snap-smooth-nodes="true">
    <inkscape:grid
       type="xygrid"
       id="grid4155"
       empspacing="4" />
  </sodipodi:namedview>
  <metadata
     id="metadata7">
    <rdf:RDF>
      <cc:Work
         rdf:about="">
        <dc:format>image/svg+xml</dc:format>
        <dc:type
           rdf:resource="http://purl.org/dc/dcmitype/StillImage" />
        <dc:title />
      </cc:Work>
    </rdf:RDF>
  </metadata>
  <g
     inkscape:label="Layer 1"
     inkscape:groupmode="layer"
     id="layer1"
     transform="translate(0,-1028.3622)">
    <path
       style="fill:#a6a09b;fill-rule:evenodd;stroke:none;stroke-width:1px;stroke-linecap:butt;stroke-linejoin:miter;stroke-opacity:1;fill-opacity:1"
       d="M 1.4414062 0 C 0.64263294 0 0 0.6426068 0 1.4414062 L 0 22.558594 C -2.9605937e-16 23.357294 0.64263294 24 1.4414062 24 L 14.027344 24 L 20 18.029297 L 20 1.4414062 C 20 0.6426068 19.357368 0 18.558594 0 L 1.4414062 0 z M 7.5488281 0.98242188 C 8.1917415 0.98242188 8.836256 1.2278938 9.3164062 1.6835938 L 8.7050781 2.4394531 C 8.3388616 2.1708531 8.0052163 2.015625 7.484375 2.015625 C 7.0856059 2.015625 6.8164062 2.1868938 6.8164062 2.4960938 C 6.8164063 2.8134935 7.1747969 2.9358469 7.6875 3.1230469 L 8.3300781 3.4003906 C 9.0299586 3.6607906 9.4707031 4.0911438 9.4707031 4.8398438 C 9.4707031 5.7188435 8.7304885 6.484375 7.4121094 6.484375 C 6.6959527 6.484375 5.9622482 6.22325 5.3925781 5.71875 L 6.0839844 4.8964844 C 6.4827534 5.2219844 6.9794844 5.4511719 7.4921875 5.4511719 C 8.0048906 5.4511719 8.2421875 5.2549281 8.2421875 4.9863281 C 8.2421875 4.6120281 7.9244865 4.5143344 7.4199219 4.3027344 L 6.7363281 4.0097656 C 6.1422439 3.7900656 5.6054687 3.3356 5.6054688 2.5625 C 5.6054688 1.6835003 6.40135 0.98242186 7.5488281 0.98242188 z M 12.306641 0.98242188 C 13.568053 0.98242188 14.439453 1.9348848 14.439453 3.7089844 C 14.439453 5.523784 13.568053 6.484375 12.306641 6.484375 C 11.045228 6.484375 10.175781 5.523784 10.175781 3.7089844 C 10.175781 1.9348848 11.045228 0.98242187 12.306641 0.98242188 z M 1.0332031 1.0800781 L 4.3046875 1.0800781 L 4.3046875 4.5800781 C 4.3046875 5.6217781 3.7929908 6.484375 2.328125 6.484375 C 1.7421786 6.484375 1.0498117 6.2565686 0.5859375 5.6054688 L 1.2773438 4.8652344 C 1.578455 5.2477344 1.9371692 5.4511719 2.2871094 5.4511719 C 2.8323648 5.4511719 3.109375 5.2148217 3.109375 4.4824219 L 3.109375 2.0820312 L 1.0332031 2.0820312 L 1.0332031 1.0800781 z M 15.283203 1.0800781 L 16.511719 1.0800781 L 17.626953 3.7167969 L 18.082031 4.8886719 L 18.115234 4.8886719 C 18.058267 4.3270719 17.943359 3.5876375 17.943359 2.9609375 L 17.943359 1.0800781 L 19.091797 1.0800781 L 19.091797 6.3867188 L 17.863281 6.3867188 L 16.748047 3.7421875 L 16.291016 2.5859375 L 16.259766 2.5859375 C 16.316733 3.1718375 16.429687 3.8791594 16.429688 4.5058594 L 16.429688 6.3867188 L 15.283203 6.3867188 L 15.283203 1.0800781 z M 12.306641 2.015625 C 11.753247 2.015625 11.404297 2.6103844 11.404297 3.7089844 C 11.404297 4.856484 11.753247 5.4511719 12.306641 5.4511719 C 12.860035 5.4511719 13.210937 4.856484 13.210938 3.7089844 C 13.210937 2.6103844 12.860035 2.015625 12.306641 2.015625 z M 5.9609375 7.7089844 L 9.9609375 7.7089844 L 9.9609375 15.708984 L 12.960938 15.708984 L 7.9609375 22.708984 L 2.9609375 15.708984 L 5.9609375 15.708984 L 5.9609375 7.7089844 z "
       transform="translate(-9.5367437e-7,1028.3622)"
       id="path5034"
       inkscape:export-filename="/Users/whiskey/Programs/tm/src/AppControls/sprite.png"
       inkscape:export-xdpi="90"
       inkscape:export-ydpi="90" />
    <path
       style="opacity:1;fill:#8d7d72;fill-opacity:1;stroke:none;stroke-width:2.5;stroke-linecap:round;stroke-linejoin:round;stroke-miterlimit:4;stroke-dasharray:none;stroke-dashoffset:0;stroke-opacity:1"
       d="m 14.027343,1052.3622 5.972656,-5.9707 -4.53125,0 c -0.798774,0 -1.441406,0.6427 -1.441406,1.4414 l 0,4.5293 z"
       id="rect5029"
       inkscape:connector-curvature="0"
       inkscape:export-filename="/Users/whiskey/Programs/tm/src/AppControls/sprite.png"
       inkscape:export-xdpi="90"
       inkscape:export-ydpi="90" />
    <path
       style="fill:#a6a09b;fill-opacity:1;fill-rule:evenodd;stroke:none;stroke-width:1px;stroke-linecap:butt;stroke-linejoin:miter;stroke-opacity:1"
       d="M 1.4414062 24 C 0.64263291 24 1.4802974e-16 24.642606 0 25.441406 L 0 46.558594 C 0 47.357294 0.64263291 48 1.4414062 48 L 14.027344 48 L 20 42.029297 L 20 25.441406 C 20 24.642606 19.357368 24 18.558594 24 L 1.4414062 24 z M 7.5488281 24.982422 C 8.1917415 24.982422 8.836256 25.227894 9.3164062 25.683594 L 8.7050781 26.439453 C 8.3388616 26.170853 8.0052163 26.015625 7.484375 26.015625 C 7.0856059 26.015625 6.8164062 26.186894 6.8164062 26.496094 C 6.8164063 26.813494 7.1747969 26.935847 7.6875 27.123047 L 8.3300781 27.400391 C 9.0299586 27.660791 9.4707031 28.091144 9.4707031 28.839844 C 9.4707031 29.718844 8.7304885 30.484375 7.4121094 30.484375 C 6.6959527 30.484375 5.9622482 30.22325 5.3925781 29.71875 L 6.0839844 28.896484 C 6.4827534 29.221984 6.9794844 29.451172 7.4921875 29.451172 C 8.0048906 29.451172 8.2421875 29.254928 8.2421875 28.986328 C 8.2421875 28.612028 7.9244865 28.514334 7.4199219 28.302734 L 6.7363281 28.009766 C 6.1422439 27.790066 5.6054687 27.3356 5.6054688 26.5625 C 5.6054688 25.6835 6.40135 24.982422 7.5488281 24.982422 z M 12.306641 24.982422 C 13.568053 24.982422 14.439453 25.934884 14.439453 27.708984 C 14.439453 29.523784 13.568053 30.484375 12.306641 30.484375 C 11.045228 30.484375 10.175781 29.523784 10.175781 27.708984 C 10.175781 25.934884 11.045228 24.982422 12.306641 24.982422 z M 1.0332031 25.080078 L 4.3046875 25.080078 L 4.3046875 28.580078 C 4.3046875 29.621778 3.7929908 30.484375 2.328125 30.484375 C 1.7421786 30.484375 1.0498117 30.256569 0.5859375 29.605469 L 1.2773438 28.865234 C 1.578455 29.247734 1.9371692 29.451172 2.2871094 29.451172 C 2.8323648 29.451172 3.109375 29.214822 3.109375 28.482422 L 3.109375 26.082031 L 1.0332031 26.082031 L 1.0332031 25.080078 z M 15.283203 25.080078 L 16.511719 25.080078 L 17.626953 27.716797 L 18.082031 28.888672 L 18.115234 28.888672 C 18.058264 28.327072 17.943359 27.587637 17.943359 26.960938 L 17.943359 25.080078 L 19.091797 25.080078 L 19.091797 30.386719 L 17.863281 30.386719 L 16.748047 27.742188 L 16.291016 26.585938 L 16.259766 26.585938 C 16.316736 27.171837 16.429687 27.879159 16.429688 28.505859 L 16.429688 30.386719 L 15.283203 30.386719 L 15.283203 25.080078 z M 12.306641 26.015625 C 11.753247 26.015625 11.404297 26.610384 11.404297 27.708984 C 11.404297 28.856484 11.753247 29.451172 12.306641 29.451172 C 12.860035 29.451172 13.210937 28.856484 13.210938 27.708984 C 13.210937 26.610384 12.860035 26.015625 12.306641 26.015625 z M 7.9609375 31.708984 L 12.960938 38.708984 L 9.9609375 38.708984 L 9.9609375 46.708984 L 5.9609375 46.708984 L 5.9609375 38.708984 L 2.9609375 38.708984 L 7.9609375 31.708984 z "
       transform="translate(-9.5367437e-7,1028.3622)"
       id="path5106"
       inkscape:export-filename="/Users/whiskey/Programs/tm/src/AppControls/sprite.png"
       inkscape:export-xdpi="90"
       inkscape:export-ydpi="90" />
    <path
       inkscape:export-ydpi="90"
       inkscape:export-xdpi="90"
       inkscape:export-filename="/Users/whiskey/Programs/tm/src/AppControls/sprite.png"
       inkscape:connector-curvature="0"
       id="path5108"
       d="m 14.027343,1076.3622 5.972656,-5.9707 -4.53125,0 c -0.798774,0 -1.441406,0.6427 -1.441406,1.4414 l 0,4.5293 z"
       style="opacity:1;fill:#8d7d72;fill-opacity:1;stroke:none;stroke-width:2.5;stroke-linecap:round;stroke-linejoin:round;stroke-miterlimit:4;stroke-dasharray:none;stroke-dashoffset:0;stroke-opacity:1" />
    <path
       id="path5116"
       d="m 21.441406,1028.3622 c -0.798773,0 -1.441406,0.6426 -1.441406,1.4414 l 0,21.1172 c 0,0.7987 0.642633,1.4414 1.441406,1.4414 l 12.585938,0 5.972656,-5.9707 0,-16.5879 c 0,-0.7988 -0.642632,-1.4414 -1.441406,-1.4414 l -17.117188,0 z m 6.107422,0.9824 c 0.642913,0 1.287428,0.2455 1.767578,0.7012 l -0.611328,0.7559 c -0.366216,-0.2686 -0.699862,-0.4239 -1.220703,-0.4239 -0.398769,0 -0.667969,0.1713 -0.667969,0.4805 0,0.3174 0.358391,0.4397 0.871094,0.6269 l 0.642578,0.2774 c 0.699881,0.2604 1.140625,0.6907 1.140625,1.4394 0,0.879 -0.740215,1.6446 -2.058594,1.6446 -0.716156,0 -1.449861,-0.2611 -2.019531,-0.7656 l 0.691406,-0.8223 c 0.398769,0.3255 0.8955,0.5547 1.408203,0.5547 0.512704,0 0.75,-0.1963 0.75,-0.4649 0,-0.3743 -0.317701,-0.472 -0.822265,-0.6836 l -0.683594,-0.2929 c -0.594084,-0.2197 -1.130859,-0.6742 -1.130859,-1.4473 0,-0.879 0.795881,-1.5801 1.943359,-1.5801 z m 4.757813,0 c 1.261412,0 2.132812,0.9525 2.132812,2.7266 0,1.8148 -0.8714,2.7754 -2.132812,2.7754 -1.261413,0 -2.13086,-0.9606 -2.13086,-2.7754 0,-1.7741 0.869447,-2.7266 2.13086,-2.7266 z m -11.273438,0.098 3.271484,0 0,3.5 c 0,1.0417 -0.511696,1.9043 -1.976562,1.9043 -0.585946,0 -1.278313,-0.2278 -1.742188,-0.8789 l 0.691407,-0.7403 c 0.301111,0.3825 0.659825,0.586 1.009765,0.586 0.545256,0 0.822266,-0.2364 0.822266,-0.9688 l 0,-2.4004 -2.076172,0 0,-1.0019 z m 14.25,0 1.228516,0 1.115234,2.6367 0.455078,1.1719 0.0332,0 c -0.05697,-0.5616 -0.171875,-1.3011 -0.171875,-1.9278 l 0,-1.8808 1.148438,0 0,5.3066 -1.228516,0 -1.115234,-2.6445 -0.457031,-1.1563 -0.03125,0 c 0.05697,0.5859 0.169921,1.2933 0.169922,1.92 l 0,1.8808 -1.146485,0 0,-5.3066 z m -2.976562,0.9355 c -0.553394,0 -0.902344,0.5948 -0.902344,1.6934 0,1.1475 0.34895,1.7422 0.902344,1.7422 0.553394,0 0.904296,-0.5947 0.904297,-1.7422 -10e-7,-1.0986 -0.350903,-1.6934 -0.904297,-1.6934 z m -6.345704,5.6934 4,0 0,8 3.000001,0 -5.000001,7 -5,-7 3,0 0,-8 z"
       style="fill:#4e8ff8;fill-opacity:1;fill-rule:evenodd;stroke:none;stroke-width:1px;stroke-linecap:butt;stroke-linejoin:miter;stroke-opacity:1"
       inkscape:connector-curvature="0"
       inkscape:export-filename="/Users/whiskey/Programs/tm/src/AppControls/sprite.png"
       inkscape:export-xdpi="90"
       inkscape:export-ydpi="90" />
    <path
       inkscape:export-ydpi="90"
       inkscape:export-xdpi="90"
       inkscape:export-filename="/Users/whiskey/Programs/tm/src/AppControls/sprite.png"
       inkscape:connector-curvature="0"
       id="path5118"
       d="M 34.027344,1052.3622 40,1046.3915 l -4.53125,0 c -0.798774,0 -1.441406,0.6427 -1.441406,1.4414 l 0,4.5293 z"
       style="opacity:1;fill:#2d68c7;fill-opacity:1;stroke:none;stroke-width:2.5;stroke-linecap:round;stroke-linejoin:round;stroke-miterlimit:4;stroke-dasharray:none;stroke-dashoffset:0;stroke-opacity:1" />
    <path
       id="path5122"
       d="m 21.441406,1052.3622 c -0.798773,0 -1.441406,0.6426 -1.441406,1.4414 l 0,21.1172 c 0,0.7987 0.642633,1.4414 1.441406,1.4414 l 12.585938,0 5.972656,-5.9707 0,-16.5879 c 0,-0.7988 -0.642632,-1.4414 -1.441406,-1.4414 l -17.117188,0 z m 6.107422,0.9824 c 0.642913,0 1.287428,0.2455 1.767578,0.7012 l -0.611328,0.7559 c -0.366216,-0.2686 -0.699862,-0.4239 -1.220703,-0.4239 -0.398769,0 -0.667969,0.1713 -0.667969,0.4805 0,0.3174 0.358391,0.4397 0.871094,0.6269 l 0.642578,0.2774 c 0.699881,0.2604 1.140625,0.6907 1.140625,1.4394 0,0.879 -0.740215,1.6446 -2.058594,1.6446 -0.716156,0 -1.449861,-0.2611 -2.019531,-0.7656 l 0.691406,-0.8223 c 0.398769,0.3255 0.8955,0.5547 1.408203,0.5547 0.512704,0 0.75,-0.1963 0.75,-0.4649 0,-0.3743 -0.317701,-0.472 -0.822265,-0.6836 l -0.683594,-0.2929 c -0.594084,-0.2197 -1.130859,-0.6742 -1.130859,-1.4473 0,-0.879 0.795881,-1.5801 1.943359,-1.5801 z m 4.757813,0 c 1.261412,0 2.132812,0.9525 2.132812,2.7266 0,1.8148 -0.8714,2.7754 -2.132812,2.7754 -1.261413,0 -2.13086,-0.9606 -2.13086,-2.7754 0,-1.7741 0.869447,-2.7266 2.13086,-2.7266 z m -11.273438,0.098 3.271484,0 0,3.5 c 0,1.0417 -0.511696,1.9043 -1.976562,1.9043 -0.585946,0 -1.278313,-0.2278 -1.742188,-0.8789 l 0.691407,-0.7403 c 0.301111,0.3825 0.659825,0.586 1.009765,0.586 0.545256,0 0.822266,-0.2364 0.822266,-0.9688 l 0,-2.4004 -2.076172,0 0,-1.0019 z m 14.25,0 1.228516,0 1.115234,2.6367 0.455078,1.1719 0.0332,0 c -0.05697,-0.5616 -0.171875,-1.3011 -0.171875,-1.9278 l 0,-1.8808 1.148438,0 0,5.3066 -1.228516,0 -1.115234,-2.6445 -0.457031,-1.1563 -0.03125,0 c 0.05697,0.5859 0.169921,1.2933 0.169922,1.92 l 0,1.8808 -1.146485,0 0,-5.3066 z m -2.976562,0.9355 c -0.553394,0 -0.902344,0.5948 -0.902344,1.6934 0,1.1475 0.34895,1.7422 0.902344,1.7422 0.553394,0 0.904296,-0.5947 0.904297,-1.7422 -10e-7,-1.0986 -0.350903,-1.6934 -0.904297,-1.6934 z m -4.345704,5.6934 5.000001,7 -3.000001,0 0,8 -4,0 0,-8 -3,0 5,-7 z"
       style="fill:#4e8ff8;fill-opacity:1;fill-rule:evenodd;stroke:none;stroke-width:1px;stroke-linecap:butt;stroke-linejoin:miter;stroke-opacity:1"
       inkscape:connector-curvature="0"
       inkscape:export-filename="/Users/whiskey/Programs/tm/src/AppControls/sprite.png"
       inkscape:export-xdpi="90"
       inkscape:export-ydpi="90" />
    <path
       style="opacity:1;fill:#2d68c7;fill-opacity:1;stroke:none;stroke-width:2.5;stroke-linecap:round;stroke-linejoin:round;stroke-miterlimit:4;stroke-dasharray:none;stroke-dashoffset:0;stroke-opacity:1"
       d="M 34.027344,1076.3622 40,1070.3915 l -4.53125,0 c -0.798774,0 -1.441406,0.6427 -1.441406,1.4414 l 0,4.5293 z"
       id="path5124"
       inkscape:connector-curvature="0"
       inkscape:export-filename="/Users/whiskey/Programs/tm/src/AppControls/sprite.png"
       inkscape:export-xdpi="90"
       inkscape:export-ydpi="90" />
    <path
       style="fill:#a6a09b;fill-opacity:1;fill-rule:evenodd;stroke:none;stroke-width:1px;stroke-linecap:butt;stroke-linejoin:miter;stroke-opacity:1"
       d="M 1.4414062 47.994141 C 0.64263306 47.994141 -1.4802974e-16 48.636747 0 49.435547 L 0 70.552734 C 0 71.351434 0.64263306 71.994141 1.4414062 71.994141 L 14.027344 71.994141 L 20 66.023438 L 20 49.435547 C 20 48.636747 19.357368 47.994141 18.558594 47.994141 L 1.4414062 47.994141 z M 6.2539062 50.685547 L 9.9589844 50.685547 L 9.9589844 54.390625 L 13.664062 54.390625 L 13.664062 58.095703 L 9.9589844 58.095703 L 9.9589844 61.802734 L 6.2539062 61.802734 L 6.2539062 58.095703 L 2.5488281 58.095703 L 2.5488281 54.390625 L 6.2539062 54.390625 L 6.2539062 50.685547 z "
       transform="translate(-9.5367437e-7,1028.3622)"
       id="path4761" />
    <path
       style="opacity:1;fill:#8d7d72;fill-opacity:1;stroke:none;stroke-width:2.5;stroke-linecap:round;stroke-linejoin:round;stroke-miterlimit:4;stroke-dasharray:none;stroke-dashoffset:0;stroke-opacity:1"
       d="m 14.027343,1100.3564 5.972656,-5.9707 -4.53125,0 c -0.798774,0 -1.441406,0.6427 -1.441406,1.4414 l 0,4.5293 z"
       id="path4747"
       inkscape:connector-curvature="0"
       inkscape:export-filename="/Users/whiskey/Programs/tm/src/AppControls/sprite.png"
       inkscape:export-xdpi="90"
       inkscape:export-ydpi="90" />
    <path
       style="fill:#5ce15d;fill-opacity:1;fill-rule:evenodd;stroke:none;stroke-width:1px;stroke-linecap:butt;stroke-linejoin:miter;stroke-opacity:1"
       d="m 21.441405,1076.3563 c -0.798773,0 -1.441406,0.6426 -1.441406,1.4414 l 0,21.1172 c 0,0.7987 0.642633,1.4414 1.441406,1.4414 l 12.585938,0 5.972656,-5.9707 0,-16.5879 c 0,-0.7988 -0.642632,-1.4414 -1.441406,-1.4414 l -17.117188,0 z m 4.8125,2.6914 3.705078,0 0,3.7051 3.705078,0 0,3.7051 -3.705078,0 0,3.707 -3.705078,0 0,-3.707 -3.705078,0 0,-3.7051 3.705078,0 0,-3.7051 z"
       id="path4774"
       inkscape:connector-curvature="0" />
    <path
       style="opacity:1;fill:#45bb46;fill-opacity:1;stroke:none;stroke-width:2.5;stroke-linecap:round;stroke-linejoin:round;stroke-miterlimit:4;stroke-dasharray:none;stroke-dashoffset:0;stroke-opacity:1"
       d="m 34.027343,1100.3564 5.972656,-5.9707 -4.53125,0 c -0.798774,0 -1.441406,0.6427 -1.441406,1.4414 l 0,4.5293 z"
       id="path4776"
       inkscape:connector-curvature="0"
       inkscape:export-filename="/Users/whiskey/Programs/tm/src/AppControls/sprite.png"
       inkscape:export-xdpi="90"
       inkscape:export-ydpi="90" />
  </g>
</svg>
