<?xml version="1.0" encoding="UTF-8" standalone="no"?>
<!-- Created with Inkscape (http://www.inkscape.org/) -->

<svg
   xmlns:dc="http://purl.org/dc/elements/1.1/"
   xmlns:cc="http://creativecommons.org/ns#"
   xmlns:rdf="http://www.w3.org/1999/02/22-rdf-syntax-ns#"
   xmlns:svg="http://www.w3.org/2000/svg"
   xmlns="http://www.w3.org/2000/svg"
   xmlns:sodipodi="http://sodipodi.sourceforge.net/DTD/sodipodi-0.dtd"
   xmlns:inkscape="http://www.inkscape.org/namespaces/inkscape"
   width="42"
   height="42"
   viewBox="0 0 42 42.000001"
   id="svg2"
   version="1.1"
   inkscape:version="0.91 r13725"
   sodipodi:docname="node.svg">
  <defs
     id="defs4" />
  <sodipodi:namedview
     id="base"
     pagecolor="#ffffff"
     bordercolor="#666666"
     borderopacity="1.0"
     inkscape:pageopacity="0.0"
     inkscape:pageshadow="2"
     inkscape:zoom="8"
     inkscape:cx="74.00361"
     inkscape:cy="-89.487843"
     inkscape:document-units="px"
     inkscape:current-layer="layer1"
     showgrid="false"
     inkscape:window-width="1280"
     inkscape:window-height="698"
     inkscape:window-x="0"
     inkscape:window-y="0"
     inkscape:window-maximized="1"
     units="px"
     inkscape:snap-smooth-nodes="false"
     inkscape:snap-intersection-paths="false"
     inkscape:object-paths="false"
     inkscape:object-nodes="false">
    <inkscape:grid
       type="xygrid"
       id="grid4155"
       empspacing="4" />
  </sodipodi:namedview>
  <metadata
     id="metadata7">
    <rdf:RDF>
      <cc:Work
         rdf:about="">
        <dc:format>image/svg+xml</dc:format>
        <dc:type
           rdf:resource="http://purl.org/dc/dcmitype/StillImage" />
        <dc:title />
      </cc:Work>
    </rdf:RDF>
  </metadata>
  <g
     inkscape:label="Layer 1"
     inkscape:groupmode="layer"
     id="layer1"
     transform="translate(0,-1010.3622)">
    <path
       style="opacity:1;fill:#685244;fill-opacity:0.49044584;stroke:none;stroke-width:20;stroke-linecap:round;stroke-linejoin:round;stroke-miterlimit:4;stroke-dasharray:none;stroke-dashoffset:0;stroke-opacity:1"
       d="M 0.033203125 21.667969 A 21 21 0 0 0 0 22.613281 A 21 21 0 0 0 21 43.613281 A 21 21 0 0 0 42 22.613281 A 21 21 0 0 0 41.966797 21.945312 A 21 21 0 0 1 21 42 A 21 21 0 0 1 0.033203125 21.667969 z "
       transform="translate(0,1010.3622)"
       id="path4848"
       inkscape:export-filename="/Users/whiskey/Programs/machinations/src/Node/sprite.png"
       inkscape:export-xdpi="90"
       inkscape:export-ydpi="90" />
    <path
       style="opacity:1;fill:#5d544e;fill-opacity:1;stroke:none;stroke-width:20;stroke-linecap:round;stroke-linejoin:round;stroke-miterlimit:4;stroke-dasharray:none;stroke-dashoffset:0;stroke-opacity:1"
       d="M 21 0 A 21 21 0 0 0 0 21 A 21 21 0 0 0 21 42 A 21 21 0 0 0 42 21 A 21 21 0 0 0 21 0 z M 21 1.375 C 30.213588 1.375 40.125 9.1614 40.125 20 C 40.125 29.0886 32.692141 37.625 21 37.625 C 9.3078586 37.625 2 29.3386 2 20 C 2 9.1614 11.786412 1.375 21 1.375 z "
       id="path4157"
       transform="translate(0,1010.3622)"
       inkscape:export-filename="/Users/whiskey/Programs/machinations/src/Node/sprite.png"
       inkscape:export-xdpi="90"
       inkscape:export-ydpi="90" />
    <path
       id="path4833"
       d="m 40.125,1030.3622 c 0,9.0886 -7.432859,17.625 -19.125,17.625 -11.6921414,0 -19,-8.2864 -19,-17.625 0,-10.8386 9.786412,-18.625 19,-18.625 9.213588,0 19.125,7.7864 19.125,18.625 z"
       style="opacity:1;fill:#f3f3f3;fill-opacity:1;stroke:none;stroke-width:20;stroke-linecap:round;stroke-linejoin:round;stroke-miterlimit:4;stroke-dasharray:none;stroke-dashoffset:0;stroke-opacity:1"
       inkscape:connector-curvature="0"
       sodipodi:nodetypes="szszs"
       inkscape:export-filename="/Users/whiskey/Programs/machinations/src/Node/sprite.png"
       inkscape:export-xdpi="90"
       inkscape:export-ydpi="90" />
    <path
       id="path5033"
       d="m 44.033203,1032.0302 a 21,21 0 0 0 -0.0332,0.9453 21,21 0 0 0 21,21 21,21 0 0 0 21,-21 21,21 0 0 0 -0.0332,-0.668 21,21 0 0 1 -20.966797,20.0547 21,21 0 0 1 -20.966797,-20.332 z"
       style="opacity:1;fill:#685244;fill-opacity:0.49044584;stroke:none;stroke-width:20;stroke-linecap:round;stroke-linejoin:round;stroke-miterlimit:4;stroke-dasharray:none;stroke-dashoffset:0;stroke-opacity:1"
       inkscape:connector-curvature="0"
       inkscape:export-filename="/Users/whiskey/Programs/machinations/src/Node/sprite.png"
       inkscape:export-xdpi="90"
       inkscape:export-ydpi="90" />
    <path
       id="path5035"
       d="m 65,1010.3622 a 21,21 0 0 0 -21,21 21,21 0 0 0 21,21 21,21 0 0 0 21,-21 21,21 0 0 0 -21,-21 z m 0,1.375 c 9.213588,0 19.125,7.7864 19.125,18.625 0,9.0886 -7.432859,17.625 -19.125,17.625 -11.692141,0 -19,-8.2864 -19,-17.625 0,-10.8386 9.786412,-18.625 19,-18.625 z"
       style="opacity:1;fill:#81756d;fill-opacity:1;stroke:none;stroke-width:20;stroke-linecap:round;stroke-linejoin:round;stroke-miterlimit:4;stroke-dasharray:none;stroke-dashoffset:0;stroke-opacity:1"
       inkscape:connector-curvature="0"
       inkscape:export-filename="/Users/whiskey/Programs/machinations/src/Node/sprite.png"
       inkscape:export-xdpi="90"
       inkscape:export-ydpi="90" />
    <path
       sodipodi:nodetypes="szszs"
       inkscape:connector-curvature="0"
       style="opacity:1;fill:#f3f3f3;fill-opacity:1;stroke:none;stroke-width:20;stroke-linecap:round;stroke-linejoin:round;stroke-miterlimit:4;stroke-dasharray:none;stroke-dashoffset:0;stroke-opacity:1"
       d="m 84.125,1030.3622 c 0,9.0886 -7.432859,17.625 -19.125,17.625 -11.692141,0 -19,-8.2864 -19,-17.625 0,-10.8386 9.786412,-18.625 19,-18.625 9.213588,0 19.125,7.7864 19.125,18.625 z"
       id="path5037"
       inkscape:export-filename="/Users/whiskey/Programs/machinations/src/Node/sprite.png"
       inkscape:export-xdpi="90"
       inkscape:export-ydpi="90" />
    <path
       inkscape:connector-curvature="0"
       style="opacity:1;fill:#685244;fill-opacity:0.49044584;stroke:none;stroke-width:20;stroke-linecap:round;stroke-linejoin:round;stroke-miterlimit:4;stroke-dasharray:none;stroke-dashoffset:0;stroke-opacity:1"
       d="m 88.0332,1032.0302 a 21,21 0 0 0 -0.0332,0.9453 21,21 0 0 0 21,21 21,21 0 0 0 21,-21 21,21 0 0 0 -0.0332,-0.668 21,21 0 0 1 -20.9668,20.0547 21,21 0 0 1 -20.966794,-20.332 z"
       id="path5039"
       inkscape:export-filename="/Users/whiskey/Programs/machinations/src/Node/sprite.png"
       inkscape:export-xdpi="90"
       inkscape:export-ydpi="90" />
    <path
       inkscape:connector-curvature="0"
       style="opacity:1;fill:#8a4ad8;fill-opacity:1;stroke:none;stroke-width:20;stroke-linecap:round;stroke-linejoin:round;stroke-miterlimit:4;stroke-dasharray:none;stroke-dashoffset:0;stroke-opacity:1"
       d="m 109,1010.3622 a 21,21 0 0 0 -21.000003,21 21,21 0 0 0 21.000003,21 21,21 0 0 0 21,-21 21,21 0 0 0 -21,-21 z m 0,1.375 c 9.21358,0 19.125,7.7864 19.125,18.625 0,9.0886 -7.43286,17.625 -19.125,17.625 -11.692144,0 -19.000003,-8.2864 -19.000003,-17.625 0,-10.8386 9.786412,-18.625 19.000003,-18.625 z"
       id="path5041"
       inkscape:export-filename="/Users/whiskey/Programs/machinations/src/Node/sprite.png"
       inkscape:export-xdpi="90"
       inkscape:export-ydpi="90" />
    <path
       id="path5043"
       d="m 128.125,1030.3622 c 0,9.0886 -7.43286,17.625 -19.125,17.625 -11.692144,0 -19.000003,-8.2864 -19.000003,-17.625 0,-10.8386 9.786412,-18.625 19.000003,-18.625 9.21358,0 19.125,7.7864 19.125,18.625 z"
       style="opacity:1;fill:#f3f3f3;fill-opacity:1;stroke:none;stroke-width:20;stroke-linecap:round;stroke-linejoin:round;stroke-miterlimit:4;stroke-dasharray:none;stroke-dashoffset:0;stroke-opacity:1"
       inkscape:connector-curvature="0"
       sodipodi:nodetypes="szszs"
       inkscape:export-filename="/Users/whiskey/Programs/machinations/src/Node/sprite.png"
       inkscape:export-xdpi="90"
       inkscape:export-ydpi="90" />
    <path
       inkscape:export-ydpi="90"
       inkscape:export-xdpi="90"
       inkscape:export-filename="/Users/whiskey/Programs/machinations/src/Node/sprite.png"
       id="path5045"
       d="m 0.04586969,1076.0302 a 21,21 0 0 0 -0.03320312,0.9453 21,21 0 0 0 21.00000043,21 21,21 0 0 0 21,-21 21,21 0 0 0 -0.0332,-0.668 21,21 0 0 1 -20.9668,20.0547 21,21 0 0 1 -20.96679731,-20.332 z"
       style="opacity:1;fill:#685244;fill-opacity:0.49044584;stroke:none;stroke-width:20;stroke-linecap:round;stroke-linejoin:round;stroke-miterlimit:4;stroke-dasharray:none;stroke-dashoffset:0;stroke-opacity:1"
       inkscape:connector-curvature="0" />
    <path
       inkscape:export-ydpi="90"
       inkscape:export-xdpi="90"
       inkscape:export-filename="/Users/whiskey/Programs/machinations/src/Node/sprite.png"
       id="path5047"
       d="m 21.012667,1054.3622 a 21,21 0 0 0 -21.00000043,21 21,21 0 0 0 21.00000043,21 21,21 0 0 0 21,-21 21,21 0 0 0 -21,-21 z m 0,1.375 c 9.213588,0 19.125,7.7864 19.125,18.625 0,9.0886 -7.432859,17.625 -19.125,17.625 -11.6921419,0 -19.0000005,-8.2864 -19.0000005,-17.625 0,-10.8386 9.7864125,-18.625 19.0000005,-18.625 z"
       style="opacity:1;fill:#5d544e;fill-opacity:1;stroke:none;stroke-width:20;stroke-linecap:round;stroke-linejoin:round;stroke-miterlimit:4;stroke-dasharray:none;stroke-dashoffset:0;stroke-opacity:1"
       inkscape:connector-curvature="0" />
    <path
       inkscape:export-ydpi="90"
       inkscape:export-xdpi="90"
       inkscape:export-filename="/Users/whiskey/Programs/machinations/src/Node/sprite.png"
       sodipodi:nodetypes="szszs"
       inkscape:connector-curvature="0"
       style="opacity:1;fill:#f3f3f3;fill-opacity:1;stroke:none;stroke-width:20;stroke-linecap:round;stroke-linejoin:round;stroke-miterlimit:4;stroke-dasharray:none;stroke-dashoffset:0;stroke-opacity:1"
       d="m 40.137667,1074.3622 c 0,9.0886 -7.432859,17.625 -19.125,17.625 -11.6921419,0 -19.0000005,-8.2864 -19.0000005,-17.625 0,-10.8386 9.7864125,-18.625 19.0000005,-18.625 9.213588,0 19.125,7.7864 19.125,18.625 z"
       id="path5049" />
    <path
       inkscape:export-ydpi="90"
       inkscape:export-xdpi="90"
       inkscape:export-filename="/Users/whiskey/Programs/machinations/src/Node/sprite.png"
       inkscape:connector-curvature="0"
       style="opacity:1;fill:#685244;fill-opacity:0.49044584;stroke:none;stroke-width:20;stroke-linecap:round;stroke-linejoin:round;stroke-miterlimit:4;stroke-dasharray:none;stroke-dashoffset:0;stroke-opacity:1"
       d="m 44.04587,1076.0302 a 21,21 0 0 0 -0.0332,0.9453 21,21 0 0 0 21,21 21,21 0 0 0 21,-21 21,21 0 0 0 -0.0332,-0.668 21,21 0 0 1 -20.966797,20.0547 21,21 0 0 1 -20.966797,-20.332 z"
       id="path5051" />
    <path
       inkscape:export-ydpi="90"
       inkscape:export-xdpi="90"
       inkscape:export-filename="/Users/whiskey/Programs/machinations/src/Node/sprite.png"
       inkscape:connector-curvature="0"
       style="opacity:1;fill:#81756d;fill-opacity:1;stroke:none;stroke-width:20;stroke-linecap:round;stroke-linejoin:round;stroke-miterlimit:4;stroke-dasharray:none;stroke-dashoffset:0;stroke-opacity:1"
       d="m 65.012667,1054.3622 a 21,21 0 0 0 -21,21 21,21 0 0 0 21,21 21,21 0 0 0 21,-21 21,21 0 0 0 -21,-21 z m 0,1.375 c 9.213588,0 19.125,7.7864 19.125,18.625 0,9.0886 -7.432859,17.625 -19.125,17.625 -11.692141,0 -19,-8.2864 -19,-17.625 0,-10.8386 9.786412,-18.625 19,-18.625 z"
       id="path5053" />
    <path
       inkscape:export-ydpi="90"
       inkscape:export-xdpi="90"
       inkscape:export-filename="/Users/whiskey/Programs/machinations/src/Node/sprite.png"
       id="path5055"
       d="m 84.137667,1074.3622 c 0,9.0886 -7.432859,17.625 -19.125,17.625 -11.692141,0 -19,-8.2864 -19,-17.625 0,-10.8386 9.786412,-18.625 19,-18.625 9.213588,0 19.125,7.7864 19.125,18.625 z"
       style="opacity:1;fill:#f3f3f3;fill-opacity:1;stroke:none;stroke-width:20;stroke-linecap:round;stroke-linejoin:round;stroke-miterlimit:4;stroke-dasharray:none;stroke-dashoffset:0;stroke-opacity:1"
       inkscape:connector-curvature="0"
       sodipodi:nodetypes="szszs" />
    <path
       inkscape:export-ydpi="90"
       inkscape:export-xdpi="90"
       inkscape:export-filename="/Users/whiskey/Programs/machinations/src/Node/sprite.png"
       id="path5057"
       d="m 88.045867,1076.0302 a 21,21 0 0 0 -0.0332,0.9453 21,21 0 0 0 20.999993,21 21,21 0 0 0 21,-21 21,21 0 0 0 -0.0332,-0.668 21,21 0 0 1 -20.9668,20.0547 21,21 0 0 1 -20.966787,-20.332 z"
       style="opacity:1;fill:#685244;fill-opacity:0.49044584;stroke:none;stroke-width:20;stroke-linecap:round;stroke-linejoin:round;stroke-miterlimit:4;stroke-dasharray:none;stroke-dashoffset:0;stroke-opacity:1"
       inkscape:connector-curvature="0" />
    <path
       inkscape:export-ydpi="90"
       inkscape:export-xdpi="90"
       inkscape:export-filename="/Users/whiskey/Programs/machinations/src/Node/sprite.png"
       id="path5059"
       d="m 109.01266,1054.3622 a 21,21 0 0 0 -20.999996,21 21,21 0 0 0 20.999996,21 21,21 0 0 0 21,-21 21,21 0 0 0 -21,-21 z m 0,1.375 c 9.21358,0 19.125,7.7864 19.125,18.625 0,9.0886 -7.43286,17.625 -19.125,17.625 -11.692137,0 -18.999996,-8.2864 -18.999996,-17.625 0,-10.8386 9.786412,-18.625 18.999996,-18.625 z"
       style="opacity:1;fill:#8a4ad8;fill-opacity:1;stroke:none;stroke-width:20;stroke-linecap:round;stroke-linejoin:round;stroke-miterlimit:4;stroke-dasharray:none;stroke-dashoffset:0;stroke-opacity:1"
       inkscape:connector-curvature="0" />
    <path
       inkscape:export-ydpi="90"
       inkscape:export-xdpi="90"
       inkscape:export-filename="/Users/whiskey/Programs/machinations/src/Node/sprite.png"
       sodipodi:nodetypes="szszs"
       inkscape:connector-curvature="0"
       style="opacity:1;fill:#f3f3f3;fill-opacity:1;stroke:none;stroke-width:20;stroke-linecap:round;stroke-linejoin:round;stroke-miterlimit:4;stroke-dasharray:none;stroke-dashoffset:0;stroke-opacity:1"
       d="m 128.13766,1074.3622 c 0,9.0886 -7.43286,17.625 -19.125,17.625 -11.692137,0 -18.999996,-8.2864 -18.999996,-17.625 0,-10.8386 9.786412,-18.625 18.999996,-18.625 9.21358,0 19.125,7.7864 19.125,18.625 z"
       id="path5061" />
    <path
       style="opacity:1;fill:#5d544e;fill-opacity:1;stroke:none;stroke-width:20;stroke-linecap:round;stroke-linejoin:round;stroke-miterlimit:4;stroke-dasharray:none;stroke-dashoffset:0;stroke-opacity:1"
       d="M 21.019531 47.224609 C 12.74581 47.224609 3.9570312 54.216219 3.9570312 63.949219 C 3.9570313 72.335219 10.520091 79.775391 21.019531 79.775391 C 31.51897 79.775391 38.193359 72.110719 38.193359 63.949219 C 38.193359 54.216219 29.293251 47.224609 21.019531 47.224609 z M 21.025391 48.904297 C 28.444686 48.904297 36.425781 55.174544 36.425781 63.902344 C 36.425781 71.221044 30.440556 78.095703 21.025391 78.095703 C 11.610225 78.095703 5.7246094 71.422344 5.7246094 63.902344 C 5.7246094 55.174544 13.606095 48.904297 21.025391 48.904297 z "
       transform="translate(0,1010.3622)"
       id="path5065"
       inkscape:export-filename="/Users/whiskey/Programs/machinations/src/Node/sprite.png"
       inkscape:export-xdpi="90"
       inkscape:export-ydpi="90" />
    <path
       id="path5070"
       d="m 65.019502,1057.5868 c -8.273721,0 -17.062499,6.9916 -17.062499,16.7246 0,8.386 6.563059,15.8262 17.062499,15.8262 10.499439,0 17.173828,-7.6647 17.173828,-15.8262 0,-9.733 -8.900108,-16.7246 -17.173828,-16.7246 z m 0.0059,1.6797 c 7.419295,0 15.40039,6.2702 15.40039,14.998 0,7.3187 -5.985225,14.1934 -15.40039,14.1934 -9.415166,0 -15.300781,-6.6734 -15.300781,-14.1934 0,-8.7278 7.881485,-14.998 15.300781,-14.998 z"
       style="opacity:1;fill:#81756d;fill-opacity:1;stroke:none;stroke-width:20;stroke-linecap:round;stroke-linejoin:round;stroke-miterlimit:4;stroke-dasharray:none;stroke-dashoffset:0;stroke-opacity:1"
       inkscape:connector-curvature="0"
       inkscape:export-filename="/Users/whiskey/Programs/machinations/src/Node/sprite.png"
       inkscape:export-xdpi="90"
       inkscape:export-ydpi="90" />
    <path
       inkscape:connector-curvature="0"
       style="opacity:1;fill:#8a4ad8;fill-opacity:1;stroke:none;stroke-width:20;stroke-linecap:round;stroke-linejoin:round;stroke-miterlimit:4;stroke-dasharray:none;stroke-dashoffset:0;stroke-opacity:1"
       d="m 109.0195,1057.5868 c -8.27372,0 -17.062499,6.9916 -17.062499,16.7246 0,8.386 6.563059,15.8262 17.062499,15.8262 10.49944,0 17.17382,-7.6647 17.17382,-15.8262 0,-9.733 -8.9001,-16.7246 -17.17382,-16.7246 z m 0.006,1.6797 c 7.41929,0 15.40039,6.2702 15.40039,14.998 0,7.3187 -5.98523,14.1934 -15.40039,14.1934 -9.415167,0 -15.300782,-6.6734 -15.300782,-14.1934 0,-8.7278 7.881482,-14.998 15.300782,-14.998 z"
       id="path5074"
       inkscape:export-filename="/Users/whiskey/Programs/machinations/src/Node/sprite.png"
       inkscape:export-xdpi="90"
       inkscape:export-ydpi="90" />
    <path
       inkscape:export-ydpi="90"
       inkscape:export-xdpi="90"
       inkscape:export-filename="/Users/whiskey/Programs/machinations/src/Node/sprite.png"
       id="path5100"
       d="M 0.03320312,1120.0302 A 21,21 0 0 0 0,1120.9755 a 21,21 0 0 0 21,21 21,21 0 0 0 21,-21 21,21 0 0 0 -0.0332,-0.668 A 21,21 0 0 1 21,1140.3622 21,21 0 0 1 0.03320312,1120.0302 Z"
       style="opacity:1;fill:#685244;fill-opacity:0.49044584;stroke:none;stroke-width:20;stroke-linecap:round;stroke-linejoin:round;stroke-miterlimit:4;stroke-dasharray:none;stroke-dashoffset:0;stroke-opacity:1"
       inkscape:connector-curvature="0" />
    <path
       inkscape:export-ydpi="90"
       inkscape:export-xdpi="90"
       inkscape:export-filename="/Users/whiskey/Programs/machinations/src/Node/sprite.png"
       id="path5102"
       d="m 21,1098.3622 a 21,21 0 0 0 -21,21 21,21 0 0 0 21,21 21,21 0 0 0 21,-21 21,21 0 0 0 -21,-21 z m 0,1.375 c 9.213588,0 19.125,7.7864 19.125,18.625 0,9.0886 -7.432859,17.625 -19.125,17.625 -11.6921414,0 -19,-8.2864 -19,-17.625 0,-10.8386 9.786412,-18.625 19,-18.625 z"
       style="opacity:1;fill:#5d544e;fill-opacity:1;stroke:none;stroke-width:20;stroke-linecap:round;stroke-linejoin:round;stroke-miterlimit:4;stroke-dasharray:none;stroke-dashoffset:0;stroke-opacity:1"
       inkscape:connector-curvature="0" />
    <path
       inkscape:export-ydpi="90"
       inkscape:export-xdpi="90"
       inkscape:export-filename="/Users/whiskey/Programs/machinations/src/Node/sprite.png"
       sodipodi:nodetypes="szszs"
       inkscape:connector-curvature="0"
       style="opacity:1;fill:#f3f3f3;fill-opacity:1;stroke:none;stroke-width:20;stroke-linecap:round;stroke-linejoin:round;stroke-miterlimit:4;stroke-dasharray:none;stroke-dashoffset:0;stroke-opacity:1"
       d="m 40.125,1118.3622 c 0,9.0886 -7.432859,17.625 -19.125,17.625 -11.6921414,0 -19,-8.2864 -19,-17.625 0,-10.8386 9.786412,-18.625 19,-18.625 9.213588,0 19.125,7.7864 19.125,18.625 z"
       id="path5104" />
    <path
       sodipodi:nodetypes="cccccccc"
       inkscape:connector-curvature="0"
       id="path5144"
       d="m 21.093954,1111.065 13.410488,6.7972 -13.410488,6.7972 0.743654,-4.0782 -14.2170501,0 0,-5.438 14.2170501,0 z"
       style="fill:#5d544e;fill-opacity:1;fill-rule:evenodd;stroke:none;stroke-width:1px;stroke-linecap:butt;stroke-linejoin:miter;stroke-opacity:1"
       inkscape:export-filename="/Users/whiskey/Programs/machinations/src/Node/sprite.png"
       inkscape:export-xdpi="90"
       inkscape:export-ydpi="90" />
    <path
       inkscape:export-ydpi="90"
       inkscape:export-xdpi="90"
       inkscape:export-filename="/Users/whiskey/Programs/machinations/src/Node/sprite.png"
       inkscape:connector-curvature="0"
       style="opacity:1;fill:#685244;fill-opacity:0.49044584;stroke:none;stroke-width:20;stroke-linecap:round;stroke-linejoin:round;stroke-miterlimit:4;stroke-dasharray:none;stroke-dashoffset:0;stroke-opacity:1"
       d="m 44.033203,1120.0302 a 21,21 0 0 0 -0.0332,0.9453 21,21 0 0 0 21,21 21,21 0 0 0 21,-21 21,21 0 0 0 -0.0332,-0.668 21,21 0 0 1 -20.966797,20.0547 21,21 0 0 1 -20.966797,-20.332 z"
       id="path5106" />
    <path
       inkscape:export-ydpi="90"
       inkscape:export-xdpi="90"
       inkscape:export-filename="/Users/whiskey/Programs/machinations/src/Node/sprite.png"
       inkscape:connector-curvature="0"
       style="opacity:1;fill:#81756d;fill-opacity:1;stroke:none;stroke-width:20;stroke-linecap:round;stroke-linejoin:round;stroke-miterlimit:4;stroke-dasharray:none;stroke-dashoffset:0;stroke-opacity:1"
       d="m 65,1098.3622 a 21,21 0 0 0 -21,21 21,21 0 0 0 21,21 21,21 0 0 0 21,-21 21,21 0 0 0 -21,-21 z m 0,1.375 c 9.213588,0 19.125,7.7864 19.125,18.625 0,9.0886 -7.432859,17.625 -19.125,17.625 -11.692141,0 -19,-8.2864 -19,-17.625 0,-10.8386 9.786412,-18.625 19,-18.625 z"
       id="path5108" />
    <path
       inkscape:export-ydpi="90"
       inkscape:export-xdpi="90"
       inkscape:export-filename="/Users/whiskey/Programs/machinations/src/Node/sprite.png"
       id="path5110"
       d="m 84.125,1118.3622 c 0,9.0886 -7.432859,17.625 -19.125,17.625 -11.692141,0 -19,-8.2864 -19,-17.625 0,-10.8386 9.786412,-18.625 19,-18.625 9.213588,0 19.125,7.7864 19.125,18.625 z"
       style="opacity:1;fill:#f3f3f3;fill-opacity:1;stroke:none;stroke-width:20;stroke-linecap:round;stroke-linejoin:round;stroke-miterlimit:4;stroke-dasharray:none;stroke-dashoffset:0;stroke-opacity:1"
       inkscape:connector-curvature="0"
       sodipodi:nodetypes="szszs" />
    <path
       inkscape:export-ydpi="90"
       inkscape:export-xdpi="90"
       inkscape:export-filename="/Users/whiskey/Programs/machinations/src/Node/sprite.png"
       id="path5112"
       d="m 88.0332,1120.0302 a 21,21 0 0 0 -0.0332,0.9453 21,21 0 0 0 21,21 21,21 0 0 0 21,-21 21,21 0 0 0 -0.0332,-0.668 21,21 0 0 1 -20.9668,20.0547 21,21 0 0 1 -20.966794,-20.332 z"
       style="opacity:1;fill:#685244;fill-opacity:0.49044584;stroke:none;stroke-width:20;stroke-linecap:round;stroke-linejoin:round;stroke-miterlimit:4;stroke-dasharray:none;stroke-dashoffset:0;stroke-opacity:1"
       inkscape:connector-curvature="0" />
    <path
       inkscape:export-ydpi="90"
       inkscape:export-xdpi="90"
       inkscape:export-filename="/Users/whiskey/Programs/machinations/src/Node/sprite.png"
       id="path5114"
       d="m 109,1098.3622 a 21,21 0 0 0 -21.000003,21 21,21 0 0 0 21.000003,21 21,21 0 0 0 21,-21 21,21 0 0 0 -21,-21 z m 0,1.375 c 9.21358,0 19.125,7.7864 19.125,18.625 0,9.0886 -7.43286,17.625 -19.125,17.625 -11.692144,0 -19.000003,-8.2864 -19.000003,-17.625 0,-10.8386 9.786412,-18.625 19.000003,-18.625 z"
       style="opacity:1;fill:#8a4ad8;fill-opacity:1;stroke:none;stroke-width:20;stroke-linecap:round;stroke-linejoin:round;stroke-miterlimit:4;stroke-dasharray:none;stroke-dashoffset:0;stroke-opacity:1"
       inkscape:connector-curvature="0" />
    <path
       inkscape:export-ydpi="90"
       inkscape:export-xdpi="90"
       inkscape:export-filename="/Users/whiskey/Programs/machinations/src/Node/sprite.png"
       sodipodi:nodetypes="szszs"
       inkscape:connector-curvature="0"
       style="opacity:1;fill:#f3f3f3;fill-opacity:1;stroke:none;stroke-width:20;stroke-linecap:round;stroke-linejoin:round;stroke-miterlimit:4;stroke-dasharray:none;stroke-dashoffset:0;stroke-opacity:1"
       d="m 128.125,1118.3622 c 0,9.0886 -7.43286,17.625 -19.125,17.625 -11.692144,0 -19.000003,-8.2864 -19.000003,-17.625 0,-10.8386 9.786412,-18.625 19.000003,-18.625 9.21358,0 19.125,7.7864 19.125,18.625 z"
       id="path5116" />
    <path
       style="fill:#8a4ad8;fill-opacity:1;fill-rule:evenodd;stroke:none;stroke-width:1px;stroke-linecap:butt;stroke-linejoin:miter;stroke-opacity:1"
       d="m 109.09395,1111.065 13.41049,6.7972 -13.41049,6.7972 0.74366,-4.0782 -14.217052,0 0,-5.438 14.217052,0 z"
       id="path5156"
       inkscape:connector-curvature="0"
       sodipodi:nodetypes="cccccccc"
       inkscape:export-filename="/Users/whiskey/Programs/machinations/src/Node/sprite.png"
       inkscape:export-xdpi="90"
       inkscape:export-ydpi="90" />
    <path
       inkscape:connector-curvature="0"
       style="opacity:1;fill:#685244;fill-opacity:0.49044584;stroke:none;stroke-width:20;stroke-linecap:round;stroke-linejoin:round;stroke-miterlimit:4;stroke-dasharray:none;stroke-dashoffset:0;stroke-opacity:1"
       d="m 0.04586969,1164.0302 a 21,21 0 0 0 -0.03320312,0.9453 21,21 0 0 0 21.00000043,21 21,21 0 0 0 21,-21 21,21 0 0 0 -0.0332,-0.668 21,21 0 0 1 -20.9668,20.0547 21,21 0 0 1 -20.96679731,-20.332 z"
       id="path5118"
       inkscape:export-filename="/Users/whiskey/Programs/machinations/src/Node/sprite.png"
       inkscape:export-xdpi="90"
       inkscape:export-ydpi="90" />
    <path
       inkscape:connector-curvature="0"
       style="opacity:1;fill:#5d544e;fill-opacity:1;stroke:none;stroke-width:20;stroke-linecap:round;stroke-linejoin:round;stroke-miterlimit:4;stroke-dasharray:none;stroke-dashoffset:0;stroke-opacity:1"
       d="m 21.012667,1142.3622 a 21,21 0 0 0 -21.00000043,21 21,21 0 0 0 21.00000043,21 21,21 0 0 0 21,-21 21,21 0 0 0 -21,-21 z m 0,1.375 c 9.213588,0 19.125,7.7864 19.125,18.625 0,9.0886 -7.432859,17.625 -19.125,17.625 -11.6921419,0 -19.0000005,-8.2864 -19.0000005,-17.625 0,-10.8386 9.7864125,-18.625 19.0000005,-18.625 z"
       id="path5120"
       inkscape:export-filename="/Users/whiskey/Programs/machinations/src/Node/sprite.png"
       inkscape:export-xdpi="90"
       inkscape:export-ydpi="90" />
    <path
       id="path5122"
       d="m 40.137667,1162.3622 c 0,9.0886 -7.432859,17.625 -19.125,17.625 -11.6921419,0 -19.0000005,-8.2864 -19.0000005,-17.625 0,-10.8386 9.7864125,-18.625 19.0000005,-18.625 9.213588,0 19.125,7.7864 19.125,18.625 z"
       style="opacity:1;fill:#f3f3f3;fill-opacity:1;stroke:none;stroke-width:20;stroke-linecap:round;stroke-linejoin:round;stroke-miterlimit:4;stroke-dasharray:none;stroke-dashoffset:0;stroke-opacity:1"
       inkscape:connector-curvature="0"
       sodipodi:nodetypes="szszs"
       inkscape:export-filename="/Users/whiskey/Programs/machinations/src/Node/sprite.png"
       inkscape:export-xdpi="90"
       inkscape:export-ydpi="90" />
    <path
       id="path5124"
       d="m 44.04587,1164.0302 a 21,21 0 0 0 -0.0332,0.9453 21,21 0 0 0 21,21 21,21 0 0 0 21,-21 21,21 0 0 0 -0.0332,-0.668 21,21 0 0 1 -20.966797,20.0547 21,21 0 0 1 -20.966797,-20.332 z"
       style="opacity:1;fill:#685244;fill-opacity:0.49044584;stroke:none;stroke-width:20;stroke-linecap:round;stroke-linejoin:round;stroke-miterlimit:4;stroke-dasharray:none;stroke-dashoffset:0;stroke-opacity:1"
       inkscape:connector-curvature="0"
       inkscape:export-filename="/Users/whiskey/Programs/machinations/src/Node/sprite.png"
       inkscape:export-xdpi="90"
       inkscape:export-ydpi="90" />
    <path
       id="path5126"
       d="m 65.012667,1142.3622 a 21,21 0 0 0 -21,21 21,21 0 0 0 21,21 21,21 0 0 0 21,-21 21,21 0 0 0 -21,-21 z m 0,1.375 c 9.213588,0 19.125,7.7864 19.125,18.625 0,9.0886 -7.432859,17.625 -19.125,17.625 -11.692141,0 -19,-8.2864 -19,-17.625 0,-10.8386 9.786412,-18.625 19,-18.625 z"
       style="opacity:1;fill:#81756d;fill-opacity:1;stroke:none;stroke-width:20;stroke-linecap:round;stroke-linejoin:round;stroke-miterlimit:4;stroke-dasharray:none;stroke-dashoffset:0;stroke-opacity:1"
       inkscape:connector-curvature="0"
       inkscape:export-filename="/Users/whiskey/Programs/machinations/src/Node/sprite.png"
       inkscape:export-xdpi="90"
       inkscape:export-ydpi="90" />
    <path
       sodipodi:nodetypes="szszs"
       inkscape:connector-curvature="0"
       style="opacity:1;fill:#f3f3f3;fill-opacity:1;stroke:none;stroke-width:20;stroke-linecap:round;stroke-linejoin:round;stroke-miterlimit:4;stroke-dasharray:none;stroke-dashoffset:0;stroke-opacity:1"
       d="m 84.137667,1162.3622 c 0,9.0886 -7.432859,17.625 -19.125,17.625 -11.692141,0 -19,-8.2864 -19,-17.625 0,-10.8386 9.786412,-18.625 19,-18.625 9.213588,0 19.125,7.7864 19.125,18.625 z"
       id="path5128"
       inkscape:export-filename="/Users/whiskey/Programs/machinations/src/Node/sprite.png"
       inkscape:export-xdpi="90"
       inkscape:export-ydpi="90" />
    <path
       inkscape:connector-curvature="0"
       style="opacity:1;fill:#685244;fill-opacity:0.49044584;stroke:none;stroke-width:20;stroke-linecap:round;stroke-linejoin:round;stroke-miterlimit:4;stroke-dasharray:none;stroke-dashoffset:0;stroke-opacity:1"
       d="m 88.045867,1164.0302 a 21,21 0 0 0 -0.0332,0.9453 21,21 0 0 0 20.999993,21 21,21 0 0 0 21,-21 21,21 0 0 0 -0.0332,-0.668 21,21 0 0 1 -20.9668,20.0547 21,21 0 0 1 -20.966787,-20.332 z"
       id="path5130"
       inkscape:export-filename="/Users/whiskey/Programs/machinations/src/Node/sprite.png"
       inkscape:export-xdpi="90"
       inkscape:export-ydpi="90" />
    <path
       inkscape:connector-curvature="0"
       style="opacity:1;fill:#8a4ad8;fill-opacity:1;stroke:none;stroke-width:20;stroke-linecap:round;stroke-linejoin:round;stroke-miterlimit:4;stroke-dasharray:none;stroke-dashoffset:0;stroke-opacity:1"
       d="m 109.01266,1142.3622 a 21,21 0 0 0 -20.999996,21 21,21 0 0 0 20.999996,21 21,21 0 0 0 21,-21 21,21 0 0 0 -21,-21 z m 0,1.375 c 9.21358,0 19.125,7.7864 19.125,18.625 0,9.0886 -7.43286,17.625 -19.125,17.625 -11.692137,0 -18.999996,-8.2864 -18.999996,-17.625 0,-10.8386 9.786412,-18.625 18.999996,-18.625 z"
       id="path5132"
       inkscape:export-filename="/Users/whiskey/Programs/machinations/src/Node/sprite.png"
       inkscape:export-xdpi="90"
       inkscape:export-ydpi="90" />
    <path
       id="path5134"
       d="m 128.13766,1162.3622 c 0,9.0886 -7.43286,17.625 -19.125,17.625 -11.692137,0 -18.999996,-8.2864 -18.999996,-17.625 0,-10.8386 9.786412,-18.625 18.999996,-18.625 9.21358,0 19.125,7.7864 19.125,18.625 z"
       style="opacity:1;fill:#f3f3f3;fill-opacity:1;stroke:none;stroke-width:20;stroke-linecap:round;stroke-linejoin:round;stroke-miterlimit:4;stroke-dasharray:none;stroke-dashoffset:0;stroke-opacity:1"
       inkscape:connector-curvature="0"
       sodipodi:nodetypes="szszs"
       inkscape:export-filename="/Users/whiskey/Programs/machinations/src/Node/sprite.png"
       inkscape:export-xdpi="90"
       inkscape:export-ydpi="90" />
    <path
       inkscape:export-ydpi="90"
       inkscape:export-xdpi="90"
       inkscape:export-filename="/Users/whiskey/Programs/machinations/src/Node/sprite.png"
       id="path5136"
       d="m 21.019531,1145.5868 c -8.273721,0 -17.0624998,6.9916 -17.0624998,16.7246 1e-7,8.386 6.5630598,15.8262 17.0624998,15.8262 10.499439,0 17.173828,-7.6647 17.173828,-15.8262 0,-9.733 -8.900108,-16.7246 -17.173828,-16.7246 z m 0.0059,1.6797 c 7.419295,0 15.40039,6.2702 15.40039,14.998 0,7.3187 -5.985225,14.1934 -15.40039,14.1934 -9.415166,0 -15.3007816,-6.6734 -15.3007816,-14.1934 0,-8.7278 7.8814856,-14.998 15.3007816,-14.998 z"
       style="opacity:1;fill:#5d544e;fill-opacity:1;stroke:none;stroke-width:20;stroke-linecap:round;stroke-linejoin:round;stroke-miterlimit:4;stroke-dasharray:none;stroke-dashoffset:0;stroke-opacity:1"
       inkscape:connector-curvature="0" />
    <path
       inkscape:export-ydpi="90"
       inkscape:export-xdpi="90"
       inkscape:export-filename="/Users/whiskey/Programs/machinations/src/Node/sprite.png"
       inkscape:connector-curvature="0"
       style="opacity:1;fill:#81756d;fill-opacity:1;stroke:none;stroke-width:20;stroke-linecap:round;stroke-linejoin:round;stroke-miterlimit:4;stroke-dasharray:none;stroke-dashoffset:0;stroke-opacity:1"
       d="m 65.019502,1145.5868 c -8.273721,0 -17.062499,6.9916 -17.062499,16.7246 0,8.386 6.563059,15.8262 17.062499,15.8262 10.499439,0 17.173828,-7.6647 17.173828,-15.8262 0,-9.733 -8.900108,-16.7246 -17.173828,-16.7246 z m 0.0059,1.6797 c 7.419295,0 15.40039,6.2702 15.40039,14.998 0,7.3187 -5.985225,14.1934 -15.40039,14.1934 -9.415166,0 -15.300781,-6.6734 -15.300781,-14.1934 0,-8.7278 7.881485,-14.998 15.300781,-14.998 z"
       id="path5138" />
    <path
       inkscape:export-ydpi="90"
       inkscape:export-xdpi="90"
       inkscape:export-filename="/Users/whiskey/Programs/machinations/src/Node/sprite.png"
       id="path5140"
       d="m 109.0195,1145.5868 c -8.27372,0 -17.062499,6.9916 -17.062499,16.7246 0,8.386 6.563059,15.8262 17.062499,15.8262 10.49944,0 17.17382,-7.6647 17.17382,-15.8262 0,-9.733 -8.9001,-16.7246 -17.17382,-16.7246 z m 0.006,1.6797 c 7.41929,0 15.40039,6.2702 15.40039,14.998 0,7.3187 -5.98523,14.1934 -15.40039,14.1934 -9.415167,0 -15.300782,-6.6734 -15.300782,-14.1934 0,-8.7278 7.881482,-14.998 15.300782,-14.998 z"
       style="opacity:1;fill:#8a4ad8;fill-opacity:1;stroke:none;stroke-width:20;stroke-linecap:round;stroke-linejoin:round;stroke-miterlimit:4;stroke-dasharray:none;stroke-dashoffset:0;stroke-opacity:1"
       inkscape:connector-curvature="0" />
    <path
       sodipodi:nodetypes="cccccccc"
       inkscape:connector-curvature="0"
       id="path5154"
       d="m 109.10661,1155.065 13.41049,6.7972 -13.41049,6.7972 0.74366,-4.0782 -14.21705,0 0,-5.438 14.21705,0 z"
       style="fill:#8a4ad8;fill-opacity:1;fill-rule:evenodd;stroke:none;stroke-width:1px;stroke-linecap:butt;stroke-linejoin:miter;stroke-opacity:1"
       inkscape:export-filename="/Users/whiskey/Programs/machinations/src/Node/sprite.png"
       inkscape:export-xdpi="90"
       inkscape:export-ydpi="90" />
    <path
       style="fill:#5d544e;fill-opacity:1;fill-rule:evenodd;stroke:none;stroke-width:1px;stroke-linecap:butt;stroke-linejoin:miter;stroke-opacity:1"
       d="m 21.106621,1155.065 13.410488,6.7972 -13.410488,6.7972 0.743654,-4.0782 -14.2170504,0 0,-5.438 14.2170504,0 z"
       id="path5142"
       inkscape:connector-curvature="0"
       sodipodi:nodetypes="cccccccc"
       inkscape:export-filename="/Users/whiskey/Programs/machinations/src/Node/sprite.png"
       inkscape:export-xdpi="90"
       inkscape:export-ydpi="90" />
    <path
       style="fill:#81756d;fill-opacity:1;fill-rule:evenodd;stroke:none;stroke-width:1px;stroke-linecap:butt;stroke-linejoin:miter;stroke-opacity:1"
       d="m 65.106621,1155.065 13.410488,6.7972 -13.410488,6.7972 0.743654,-4.0782 -14.21705,0 0,-5.438 14.21705,0 z"
       id="path5150"
       inkscape:connector-curvature="0"
       sodipodi:nodetypes="cccccccc"
       inkscape:export-filename="/Users/whiskey/Programs/machinations/src/Node/sprite.png"
       inkscape:export-xdpi="90"
       inkscape:export-ydpi="90" />
    <path
       sodipodi:nodetypes="cccccccc"
       inkscape:connector-curvature="0"
       id="path5152"
       d="m 65.093954,1111.065 13.410488,6.7972 -13.410488,6.7972 0.743654,-4.0782 -14.21705,0 0,-5.438 14.21705,0 z"
       style="fill:#81756d;fill-opacity:1;fill-rule:evenodd;stroke:none;stroke-width:1px;stroke-linecap:butt;stroke-linejoin:miter;stroke-opacity:1"
       inkscape:export-filename="/Users/whiskey/Programs/machinations/src/Node/sprite.png"
       inkscape:export-xdpi="90"
       inkscape:export-ydpi="90" />
    <path
       style="opacity:1;fill:#685244;fill-opacity:0.30573249;stroke:none;stroke-width:20;stroke-linecap:round;stroke-linejoin:round;stroke-miterlimit:4;stroke-dasharray:none;stroke-dashoffset:0;stroke-opacity:1"
       d="M 132.04297 22.505859 A 21 21 0 0 0 131.9668 24.181641 A 21 21 0 0 0 152.9668 45.181641 A 21 21 0 0 0 173.9668 24.181641 A 21 21 0 0 0 173.89062 22.675781 A 21 21 0 0 1 152.9668 42 A 21 21 0 0 1 132.04297 22.505859 z "
       transform="translate(0,1010.3622)"
       id="path5178"
       inkscape:export-filename="/Users/whiskey/Programs/machinations/src/Node/sprite.png"
       inkscape:export-xdpi="90"
       inkscape:export-ydpi="90" />
    <path
       inkscape:export-ydpi="90"
       inkscape:export-xdpi="90"
       inkscape:export-filename="/Users/whiskey/Programs/machinations/src/Node/sprite.png"
       id="path5170"
       d="m 152.96679,1010.3622 a 21,21 0 0 0 -21,21 21,21 0 0 0 21,21 21,21 0 0 0 21,-21 21,21 0 0 0 -21,-21 z m 0,1.375 c 9.21358,0 19.125,7.7864 19.125,18.625 0,9.0886 -7.43286,17.625 -19.125,17.625 -11.69214,0 -19,-8.2864 -19,-17.625 0,-10.8386 9.78641,-18.625 19,-18.625 z"
       style="opacity:1;fill:#b48ae6;fill-opacity:1;stroke:none;stroke-width:20;stroke-linecap:round;stroke-linejoin:round;stroke-miterlimit:4;stroke-dasharray:none;stroke-dashoffset:0;stroke-opacity:1"
       inkscape:connector-curvature="0" />
    <path
       inkscape:export-ydpi="90"
       inkscape:export-xdpi="90"
       inkscape:export-filename="/Users/whiskey/Programs/machinations/src/Node/sprite.png"
       sodipodi:nodetypes="szszs"
       inkscape:connector-curvature="0"
       style="opacity:1;fill:#f3f3f3;fill-opacity:1;stroke:none;stroke-width:20;stroke-linecap:round;stroke-linejoin:round;stroke-miterlimit:4;stroke-dasharray:none;stroke-dashoffset:0;stroke-opacity:1"
       d="m 172.09179,1030.3622 c 0,9.0886 -7.43286,17.625 -19.125,17.625 -11.69214,0 -19,-8.2864 -19,-17.625 0,-10.8386 9.78641,-18.625 19,-18.625 9.21358,0 19.125,7.7864 19.125,18.625 z"
       id="path5172" />
  </g>
</svg>
