<?xml version="1.0" encoding="UTF-8" standalone="no"?>
<!-- Created with Inkscape (http://www.inkscape.org/) -->

<svg
   xmlns:dc="http://purl.org/dc/elements/1.1/"
   xmlns:cc="http://creativecommons.org/ns#"
   xmlns:rdf="http://www.w3.org/1999/02/22-rdf-syntax-ns#"
   xmlns:svg="http://www.w3.org/2000/svg"
   xmlns="http://www.w3.org/2000/svg"
   xmlns:sodipodi="http://sodipodi.sourceforge.net/DTD/sodipodi-0.dtd"
   xmlns:inkscape="http://www.inkscape.org/namespaces/inkscape"
   width="49"
   height="49"
   viewBox="0 0 49 49.000001"
   id="svg2"
   version="1.1"
   inkscape:version="0.91 r13725"
   sodipodi:docname="tape.svg">
  <defs
     id="defs4" />
  <sodipodi:namedview
     id="base"
     pagecolor="#ffffff"
     bordercolor="#666666"
     borderopacity="1.0"
     inkscape:pageopacity="0.0"
     inkscape:pageshadow="2"
     inkscape:zoom="4.7395266"
     inkscape:cx="208.85891"
     inkscape:cy="19.811983"
     inkscape:document-units="px"
     inkscape:current-layer="layer1"
     showgrid="true"
     inkscape:window-width="1280"
     inkscape:window-height="698"
     inkscape:window-x="0"
     inkscape:window-y="0"
     inkscape:window-maximized="1"
     units="px"
     inkscape:object-nodes="true"
     inkscape:snap-intersection-paths="false"
     inkscape:snap-smooth-nodes="false"
     inkscape:object-paths="false"
     showguides="true"
     inkscape:guide-bbox="true"
     inkscape:snap-others="false"
     inkscape:snap-nodes="true">
    <inkscape:grid
       type="xygrid"
       id="grid4155"
       empspacing="4" />
  </sodipodi:namedview>
  <metadata
     id="metadata7">
    <rdf:RDF>
      <cc:Work
         rdf:about="">
        <dc:format>image/svg+xml</dc:format>
        <dc:type
           rdf:resource="http://purl.org/dc/dcmitype/StillImage" />
        <dc:title />
      </cc:Work>
    </rdf:RDF>
  </metadata>
  <g
     inkscape:label="Layer 1"
     inkscape:groupmode="layer"
     id="layer1"
     transform="translate(0,-1003.3622)">
    <path
       style="fill:#5d544e;fill-opacity:1;fill-rule:evenodd;stroke:none;stroke-width:1px;stroke-linecap:butt;stroke-linejoin:miter;stroke-opacity:1"
       d="m -6,1005.3622 6,0 c 0,0 -1e-7,-6 -6,-6 -6,0 -6,6 -6,6 l 0,49 c 0,0 0,6 6,6 6,0 6,-6 6,-6 l -6,0 z"
       id="path4228"
       inkscape:connector-curvature="0"
       sodipodi:nodetypes="cczcczccc"
       inkscape:export-filename="/Users/whiskey/Programs/tm/src/Tape/sprite.png"
       inkscape:export-xdpi="90"
       inkscape:export-ydpi="90" />
    <path
       sodipodi:nodetypes="ccccccc"
       inkscape:connector-curvature="0"
       id="path4801"
       d="m 12,1004.1512 4,3 27,0 4,-3 0,-4 -35,0 z"
       style="fill:#4c443e;fill-opacity:1;fill-rule:evenodd;stroke:none;stroke-width:1px;stroke-linecap:butt;stroke-linejoin:miter;stroke-opacity:1"
       inkscape:export-filename="/Users/whiskey/Programs/tm/src/Tape/sprite.png"
       inkscape:export-xdpi="90"
       inkscape:export-ydpi="90" />
    <path
       style="fill:#5d544e;fill-rule:evenodd;stroke:none;stroke-width:1px;stroke-linecap:butt;stroke-linejoin:miter;stroke-opacity:1;fill-opacity:1"
       d="m 12,1003.3622 4,3 27,0 4,-3 0,-4 -35,0 z"
       id="path4797"
       inkscape:connector-curvature="0"
       sodipodi:nodetypes="ccccccc"
       inkscape:export-filename="/Users/whiskey/Programs/tm/src/Tape/sprite.png"
       inkscape:export-xdpi="90"
       inkscape:export-ydpi="90" />
    <path
       style="fill:#413934;fill-opacity:1;fill-rule:evenodd;stroke:none;stroke-width:1px;stroke-linecap:butt;stroke-linejoin:miter;stroke-opacity:1"
       d="m 12,1067.1512 4,-3 27,0 4,3 0,4 -35,0 z"
       id="path4803"
       inkscape:connector-curvature="0"
       sodipodi:nodetypes="ccccccc"
       inkscape:export-filename="/Users/whiskey/Programs/tm/src/Tape/sprite.png"
       inkscape:export-xdpi="90"
       inkscape:export-ydpi="90" />
    <path
       sodipodi:nodetypes="ccccccc"
       inkscape:connector-curvature="0"
       id="path4799"
       d="m 12,1066.3622 4,-3 27,0 4,3 0,4 -35,0 z"
       style="fill:#5d544e;fill-opacity:1;fill-rule:evenodd;stroke:none;stroke-width:1px;stroke-linecap:butt;stroke-linejoin:miter;stroke-opacity:1"
       inkscape:export-filename="/Users/whiskey/Programs/tm/src/Tape/sprite.png"
       inkscape:export-xdpi="90"
       inkscape:export-ydpi="90" />
    <path
       sodipodi:nodetypes="ccccc"
       inkscape:export-ydpi="90"
       inkscape:export-xdpi="90"
       inkscape:export-filename="/Users/whiskey/Programs/tm/src/Tape/sprite.png"
       inkscape:connector-curvature="0"
       id="path4805"
       d="m 82,1003.3622 0,63 -35,0 0,-63 z"
       style="fill:#ffb438;fill-opacity:1;fill-rule:evenodd;stroke:none;stroke-width:1px;stroke-linecap:butt;stroke-linejoin:miter;stroke-opacity:1" />
    <path
       inkscape:export-ydpi="90"
       inkscape:export-xdpi="90"
       inkscape:export-filename="/Users/whiskey/Programs/tm/src/Tape/sprite.png"
       style="fill:#4c443e;fill-opacity:1;fill-rule:evenodd;stroke:none;stroke-width:1px;stroke-linecap:butt;stroke-linejoin:miter;stroke-opacity:1"
       d="m 47,1004.1512 4,3 27,0 4,-3 0,-4 -35,0 z"
       id="path4807"
       inkscape:connector-curvature="0"
       sodipodi:nodetypes="ccccccc" />
    <path
       inkscape:export-ydpi="90"
       inkscape:export-xdpi="90"
       inkscape:export-filename="/Users/whiskey/Programs/tm/src/Tape/sprite.png"
       sodipodi:nodetypes="ccccccc"
       inkscape:connector-curvature="0"
       id="path4809"
       d="m 47,1003.3622 4,3 27,0 4,-3 0,-4 -35,0 z"
       style="fill:#5d544e;fill-opacity:1;fill-rule:evenodd;stroke:none;stroke-width:1px;stroke-linecap:butt;stroke-linejoin:miter;stroke-opacity:1" />
    <path
       inkscape:export-ydpi="90"
       inkscape:export-xdpi="90"
       inkscape:export-filename="/Users/whiskey/Programs/tm/src/Tape/sprite.png"
       sodipodi:nodetypes="ccccccc"
       inkscape:connector-curvature="0"
       id="path4811"
       d="m 47,1067.1512 4,-3 27,0 4,3 0,4 -35,0 z"
       style="fill:#413934;fill-opacity:1;fill-rule:evenodd;stroke:none;stroke-width:1px;stroke-linecap:butt;stroke-linejoin:miter;stroke-opacity:1" />
    <path
       inkscape:export-ydpi="90"
       inkscape:export-xdpi="90"
       inkscape:export-filename="/Users/whiskey/Programs/tm/src/Tape/sprite.png"
       style="fill:#5d544e;fill-opacity:1;fill-rule:evenodd;stroke:none;stroke-width:1px;stroke-linecap:butt;stroke-linejoin:miter;stroke-opacity:1"
       d="m 47,1066.3622 4,-3 27,0 4,3 0,4 -35,0 z"
       id="path4813"
       inkscape:connector-curvature="0"
       sodipodi:nodetypes="ccccccc" />
    <path
       style="fill:#4d423b;fill-opacity:1;fill-rule:evenodd;stroke:none;stroke-width:1px;stroke-linecap:butt;stroke-linejoin:miter;stroke-opacity:1"
       d="m -6,1054.3622 5.7246094,1.7168 C -0.0150355,1055.1179 0,1054.3622 0,1054.3622 l -6,0 z"
       id="path4234"
       inkscape:connector-curvature="0"
       inkscape:export-filename="/Users/whiskey/Programs/tm/src/Tape/sprite.png"
       inkscape:export-xdpi="90"
       inkscape:export-ydpi="90" />
    <path
       sodipodi:nodetypes="cczcczccc"
       inkscape:connector-curvature="0"
       id="path4239"
       d="m 6,1005.3622 -6,0 c 0,0 1e-7,-6 6,-6 6,0 6,6 6,6 l 0,49 c 0,0 0,6 -6,6 -6,0 -6,-6 -6,-6 l 6,0 z"
       style="fill:#5d544e;fill-opacity:1;fill-rule:evenodd;stroke:none;stroke-width:1px;stroke-linecap:butt;stroke-linejoin:miter;stroke-opacity:1"
       inkscape:export-filename="/Users/whiskey/Programs/tm/src/Tape/sprite.png"
       inkscape:export-xdpi="90"
       inkscape:export-ydpi="90" />
    <path
       id="path4241"
       d="m 6,1054.3622 -5.7246094,1.7168 C 0.0150355,1055.1179 0,1054.3622 0,1054.3622 l 6,0 z"
       style="fill:#4d423b;fill-opacity:1;fill-rule:evenodd;stroke:none;stroke-width:1px;stroke-linecap:butt;stroke-linejoin:miter;stroke-opacity:1"
       inkscape:connector-curvature="0"
       inkscape:export-filename="/Users/whiskey/Programs/tm/src/Tape/sprite.png"
       inkscape:export-xdpi="90"
       inkscape:export-ydpi="90" />
    <rect
       style="opacity:1;fill:#3f3a3a;fill-opacity:0.06214689;stroke:none;stroke-width:0.69999999;stroke-linecap:round;stroke-linejoin:round;stroke-miterlimit:4;stroke-dasharray:none;stroke-dashoffset:0;stroke-opacity:1"
       id="rect5382"
       width="4.0833335"
       height="49"
       x="-6"
       y="1005.3622"
       inkscape:export-filename="/Users/whiskey/Programs/tm/src/Tape/sprite.png"
       inkscape:export-xdpi="90"
       inkscape:export-ydpi="90" />
    <rect
       y="1005.3622"
       x="-6"
       height="49"
       width="2"
       id="rect5384"
       style="opacity:1;fill:#3f3a3a;fill-opacity:0.09039548;stroke:none;stroke-width:0.69999999;stroke-linecap:round;stroke-linejoin:round;stroke-miterlimit:4;stroke-dasharray:none;stroke-dashoffset:0;stroke-opacity:1"
       inkscape:export-filename="/Users/whiskey/Programs/tm/src/Tape/sprite.png"
       inkscape:export-xdpi="90"
       inkscape:export-ydpi="90" />
    <rect
       style="opacity:1;fill:#3f3a3a;fill-opacity:0.09039546;stroke:none;stroke-width:0.69999999;stroke-linecap:round;stroke-linejoin:round;stroke-miterlimit:4;stroke-dasharray:none;stroke-dashoffset:0;stroke-opacity:1"
       id="rect5386"
       width="1.0505381"
       height="49"
       x="-6"
       y="1005.3622"
       inkscape:export-filename="/Users/whiskey/Programs/tm/src/Tape/sprite.png"
       inkscape:export-xdpi="90"
       inkscape:export-ydpi="90" />
    <rect
       y="1005.3622"
       x="-5.8900204"
       height="49"
       width="4.0833335"
       id="rect5388"
       style="opacity:1;fill:#3f3a3a;fill-opacity:0.06214689;stroke:none;stroke-width:0.69999999;stroke-linecap:round;stroke-linejoin:round;stroke-miterlimit:4;stroke-dasharray:none;stroke-dashoffset:0;stroke-opacity:1"
       transform="scale(-1,1)"
       inkscape:export-filename="/Users/whiskey/Programs/tm/src/Tape/sprite.png"
       inkscape:export-xdpi="90"
       inkscape:export-ydpi="90" />
    <rect
       style="opacity:1;fill:#3f3a3a;fill-opacity:0.09039546;stroke:none;stroke-width:0.69999999;stroke-linecap:round;stroke-linejoin:round;stroke-miterlimit:4;stroke-dasharray:none;stroke-dashoffset:0;stroke-opacity:1"
       id="rect5390"
       width="2"
       height="49"
       x="-5.8900204"
       y="1005.3622"
       transform="scale(-1,1)"
       inkscape:export-filename="/Users/whiskey/Programs/tm/src/Tape/sprite.png"
       inkscape:export-xdpi="90"
       inkscape:export-ydpi="90" />
    <rect
       y="1005.3622"
       x="4.8394823"
       height="49"
       width="1.0505381"
       id="rect5392"
       style="opacity:1;fill:#3f3a3a;fill-opacity:0.09039546;stroke:none;stroke-width:0.69999999;stroke-linecap:round;stroke-linejoin:round;stroke-miterlimit:4;stroke-dasharray:none;stroke-dashoffset:0;stroke-opacity:1"
       inkscape:export-filename="/Users/whiskey/Programs/tm/src/Tape/sprite.png"
       inkscape:export-xdpi="90"
       inkscape:export-ydpi="90" />
    <path
       style="fill:#f3f3f3;fill-opacity:1;fill-rule:evenodd;stroke:#a6a09b;stroke-width:0.2;stroke-linecap:butt;stroke-linejoin:miter;stroke-miterlimit:4;stroke-dasharray:none;stroke-opacity:1"
       d="m 87,1005.3622 0,12 8,0 0,-12 z"
       id="path4161"
       inkscape:connector-curvature="0"
       inkscape:export-filename="/Users/whiskey/Programs/tm/src/Tape/sprite.png"
       inkscape:export-xdpi="90"
       inkscape:export-ydpi="90" />
    <text
       xml:space="preserve"
       style="font-style:normal;font-weight:normal;font-size:12.47409058px;line-height:125%;font-family:sans-serif;letter-spacing:0px;word-spacing:0px;fill:#a6a09b;fill-opacity:1;stroke:none;stroke-width:1px;stroke-linecap:butt;stroke-linejoin:miter;stroke-opacity:1"
       x="87.303459"
       y="1015.6542"
       id="text5374"
       sodipodi:linespacing="125%"
       inkscape:export-filename="/Users/whiskey/Programs/tm/src/Tape/sprite.png"
       inkscape:export-xdpi="90"
       inkscape:export-ydpi="90"><tspan
         sodipodi:role="line"
         id="tspan5376"
         x="87.303459"
         y="1015.6542"
         style="font-style:normal;font-variant:normal;font-weight:normal;font-stretch:normal;font-family:Roboto;-inkscape-font-specification:Roboto;fill:#a6a09b;fill-opacity:1">1</tspan></text>
    <path
       inkscape:connector-curvature="0"
       id="path5360"
       d="m 95,1005.3622 0,12 8,0 0,-12 z"
       style="fill:#f3f3f3;fill-opacity:1;fill-rule:evenodd;stroke:#a6a09b;stroke-width:0.2;stroke-linecap:butt;stroke-linejoin:miter;stroke-miterlimit:4;stroke-dasharray:none;stroke-opacity:1"
       inkscape:export-filename="/Users/whiskey/Programs/tm/src/Tape/sprite.png"
       inkscape:export-xdpi="90"
       inkscape:export-ydpi="90" />
    <path
       style="fill:#f3f3f3;fill-opacity:1;fill-rule:evenodd;stroke:#a6a09b;stroke-width:0.2;stroke-linecap:butt;stroke-linejoin:miter;stroke-miterlimit:4;stroke-dasharray:none;stroke-opacity:1"
       d="m 103,1005.3622 0,12 8,0 0,-12 z"
       id="path5362"
       inkscape:connector-curvature="0"
       inkscape:export-filename="/Users/whiskey/Programs/tm/src/Tape/sprite.png"
       inkscape:export-xdpi="90"
       inkscape:export-ydpi="90" />
    <path
       inkscape:connector-curvature="0"
       id="path5364"
       d="m 111,1005.3622 0,12 8,0 0,-12 z"
       style="fill:#f3f3f3;fill-opacity:1;fill-rule:evenodd;stroke:#a6a09b;stroke-width:0.2;stroke-linecap:butt;stroke-linejoin:miter;stroke-miterlimit:4;stroke-dasharray:none;stroke-opacity:1"
       inkscape:export-filename="/Users/whiskey/Programs/tm/src/Tape/sprite.png"
       inkscape:export-xdpi="90"
       inkscape:export-ydpi="90" />
    <path
       style="fill:#f3f3f3;fill-opacity:1;fill-rule:evenodd;stroke:#a6a09b;stroke-width:0.2;stroke-linecap:butt;stroke-linejoin:miter;stroke-miterlimit:4;stroke-dasharray:none;stroke-opacity:1"
       d="m 124,1005.3622 -5,0 0,12 5,0"
       id="path5366"
       inkscape:connector-curvature="0"
       sodipodi:nodetypes="cccc"
       inkscape:export-filename="/Users/whiskey/Programs/tm/src/Tape/sprite.png"
       inkscape:export-xdpi="90"
       inkscape:export-ydpi="90" />
    <path
       sodipodi:nodetypes="cccc"
       inkscape:connector-curvature="0"
       id="path5370"
       d="m 82,1005.3622 5,0 0,12 -5,0"
       style="fill:#f3f3f3;fill-opacity:1;fill-rule:evenodd;stroke:#a6a09b;stroke-width:0.2;stroke-linecap:butt;stroke-linejoin:miter;stroke-miterlimit:4;stroke-dasharray:none;stroke-opacity:1"
       inkscape:export-filename="/Users/whiskey/Programs/tm/src/Tape/sprite.png"
       inkscape:export-xdpi="90"
       inkscape:export-ydpi="90" />
    <path
       style="fill:#a6a09b;fill-opacity:1;fill-rule:evenodd;stroke:none;stroke-width:1px;stroke-linecap:butt;stroke-linejoin:miter;stroke-opacity:1"
       d="m 108.94056,999.45447 5.94054,5.94043 -5.94054,5.9408 5.94054,5.9405 -5.94054,5.9405 -5.94056,-5.9405 -5.94056,5.9405 -5.94054,-5.9405 5.94054,-5.9405 -5.94054,-5.9408 5.94054,-5.94043 5.94056,5.94043 z"
       id="path5372"
       inkscape:connector-curvature="0"
       inkscape:export-filename="/Users/whiskey/Programs/tm/src/Tape/sprite.png"
       inkscape:export-xdpi="90"
       inkscape:export-ydpi="90" />
    <path
       inkscape:connector-curvature="0"
       id="path5405"
       d="m 87,1029.3622 0,12 8,0 0,-12 z"
       style="fill:#f3f3f3;fill-opacity:1;fill-rule:evenodd;stroke:#5d544e;stroke-width:0.2;stroke-linecap:butt;stroke-linejoin:miter;stroke-miterlimit:4;stroke-dasharray:none;stroke-opacity:1"
       inkscape:export-filename="/Users/whiskey/Programs/tm/src/Tape/sprite.png"
       inkscape:export-xdpi="90"
       inkscape:export-ydpi="90" />
    <path
       style="fill:#f3f3f3;fill-opacity:1;fill-rule:evenodd;stroke:#5d544e;stroke-width:0.2;stroke-linecap:butt;stroke-linejoin:miter;stroke-miterlimit:4;stroke-dasharray:none;stroke-opacity:1"
       d="m 95,1029.3622 0,12 8,0 0,-12 z"
       id="path5411"
       inkscape:connector-curvature="0"
       inkscape:export-filename="/Users/whiskey/Programs/tm/src/Tape/sprite.png"
       inkscape:export-xdpi="90"
       inkscape:export-ydpi="90" />
    <path
       inkscape:connector-curvature="0"
       id="path5413"
       d="m 103,1029.3622 0,12 8,0 0,-12 z"
       style="fill:#f3f3f3;fill-opacity:1;fill-rule:evenodd;stroke:#5d544e;stroke-width:0.2;stroke-linecap:butt;stroke-linejoin:miter;stroke-miterlimit:4;stroke-dasharray:none;stroke-opacity:1"
       inkscape:export-filename="/Users/whiskey/Programs/tm/src/Tape/sprite.png"
       inkscape:export-xdpi="90"
       inkscape:export-ydpi="90" />
    <path
       style="fill:#f3f3f3;fill-opacity:1;fill-rule:evenodd;stroke:#5d544e;stroke-width:0.2;stroke-linecap:butt;stroke-linejoin:miter;stroke-miterlimit:4;stroke-dasharray:none;stroke-opacity:1"
       d="m 111,1029.3622 0,12 8,0 0,-12 z"
       id="path5415"
       inkscape:connector-curvature="0"
       inkscape:export-filename="/Users/whiskey/Programs/tm/src/Tape/sprite.png"
       inkscape:export-xdpi="90"
       inkscape:export-ydpi="90" />
    <path
       sodipodi:nodetypes="cccc"
       inkscape:connector-curvature="0"
       id="path5417"
       d="m 124,1029.3622 -5,0 0,12 5,0"
       style="fill:#f3f3f3;fill-opacity:1;fill-rule:evenodd;stroke:#5d544e;stroke-width:0.2;stroke-linecap:butt;stroke-linejoin:miter;stroke-miterlimit:4;stroke-dasharray:none;stroke-opacity:1"
       inkscape:export-filename="/Users/whiskey/Programs/tm/src/Tape/sprite.png"
       inkscape:export-xdpi="90"
       inkscape:export-ydpi="90" />
    <path
       style="fill:#f3f3f3;fill-opacity:1;fill-rule:evenodd;stroke:#5d544e;stroke-width:0.2;stroke-linecap:butt;stroke-linejoin:miter;stroke-miterlimit:4;stroke-dasharray:none;stroke-opacity:1"
       d="m 82,1029.3622 5,0 0,12 -5,0"
       id="path5419"
       inkscape:connector-curvature="0"
       sodipodi:nodetypes="cccc"
       inkscape:export-filename="/Users/whiskey/Programs/tm/src/Tape/sprite.png"
       inkscape:export-xdpi="90"
       inkscape:export-ydpi="90" />
    <path
       inkscape:connector-curvature="0"
       id="path5421"
       d="m 108.94056,1023.4545 5.94054,5.9404 -5.94054,5.9408 5.94054,5.9405 -5.94054,5.9405 -5.94056,-5.9405 -5.94056,5.9405 -5.94054,-5.9405 5.94054,-5.9405 -5.94054,-5.9408 5.94054,-5.9404 5.94056,5.9404 z"
       style="fill:#f86a4e;fill-opacity:1;fill-rule:evenodd;stroke:none;stroke-width:1px;stroke-linecap:butt;stroke-linejoin:miter;stroke-opacity:1"
       inkscape:export-filename="/Users/whiskey/Programs/tm/src/Tape/sprite.png"
       inkscape:export-xdpi="90"
       inkscape:export-ydpi="90" />
    <text
       xml:space="preserve"
       style="font-style:normal;font-weight:normal;font-size:40px;line-height:125%;font-family:sans-serif;letter-spacing:0px;word-spacing:0px;fill:#000000;fill-opacity:1;stroke:none;stroke-width:1px;stroke-linecap:butt;stroke-linejoin:miter;stroke-opacity:1"
       x="134"
       y="1016.3622"
       id="text4183"
       sodipodi:linespacing="125%"><tspan
         sodipodi:role="line"
         id="tspan4185"
         x="134"
         y="1016.3622" /></text>
    <text
       inkscape:export-ydpi="90"
       inkscape:export-xdpi="90"
       inkscape:export-filename="/Users/whiskey/Programs/tm/src/Tape/sprite.png"
       sodipodi:linespacing="125%"
       id="text4188"
       y="1013.8581"
       x="111.85025"
       style="font-style:normal;font-weight:normal;font-size:7.34387541px;line-height:125%;font-family:sans-serif;letter-spacing:0px;word-spacing:0px;fill:#dcdde0;fill-opacity:1;stroke:none;stroke-width:1px;stroke-linecap:butt;stroke-linejoin:miter;stroke-opacity:1"
       xml:space="preserve"><tspan
         style="font-style:normal;font-variant:normal;font-weight:normal;font-stretch:normal;font-family:Roboto;-inkscape-font-specification:Roboto;fill:#dcdde0;fill-opacity:1"
         y="1013.8581"
         x="111.85025"
         id="tspan4190"
         sodipodi:role="line">∅</tspan></text>
    <path
       style="font-style:normal;font-variant:normal;font-weight:normal;font-stretch:normal;font-size:medium;line-height:125%;font-family:Roboto;-inkscape-font-specification:Roboto;letter-spacing:0px;word-spacing:0px;fill:#a6a09b;fill-opacity:1;stroke:none;stroke-width:1px;stroke-linecap:butt;stroke-linejoin:miter;stroke-opacity:1"
       d="m 82.676727,1006.6649 c -0.241331,0 -0.466624,0.019 -0.675781,0.059 l 0,1.0039 c 0.195432,-0.087 0.417721,-0.1367 0.675781,-0.1367 0.580663,0 1.00544,0.2177 1.273438,0.6563 0.267998,0.4344 0.40039,1.1297 0.40039,2.084 l 0,1.8457 c -0.01218,0.9258 -0.153722,1.6028 -0.425781,2.0332 -0.267998,0.4304 -0.680029,0.6464 -1.236328,0.6464 -0.260556,0 -0.487517,-0.053 -0.6875,-0.1503 l 0,1.0039 c 0.213015,0.042 0.441182,0.066 0.6875,0.066 0.958296,0 1.662557,-0.3213 2.113281,-0.9629 0.450724,-0.6416 0.675782,-1.6217 0.675782,-2.9414 l 0,-1.4629 c -0.01218,-1.275 -0.242636,-2.2171 -0.69336,-2.8262 -0.450724,-0.6131 -1.153186,-0.918 -2.107422,-0.918 z"
       id="path4208"
       inkscape:connector-curvature="0"
       inkscape:export-filename="/Users/whiskey/Programs/tm/src/Tape/sprite.png"
       inkscape:export-xdpi="90"
       inkscape:export-ydpi="90" />
    <path
       style="font-style:normal;font-variant:normal;font-weight:normal;font-stretch:normal;font-size:medium;line-height:125%;font-family:Roboto;-inkscape-font-specification:Roboto;letter-spacing:0px;word-spacing:0px;fill:#a6a09b;fill-opacity:1;stroke:none;stroke-width:1px;stroke-linecap:butt;stroke-linejoin:miter;stroke-opacity:1"
       d="m 123.55563,1006.6649 c -0.96235,0 -1.66841,0.3159 -2.11914,0.9493 -0.45072,0.6334 -0.67578,1.6027 -0.67578,2.9062 l 0,1.5039 c 0.0162,1.2466 0.25224,2.1851 0.70703,2.8145 0.45478,0.6253 1.15349,0.9375 2.09961,0.9375 0.15461,0 0.2922,-0.022 0.43359,-0.039 l 0,-0.9375 c -0.13395,0.034 -0.27671,0.057 -0.43359,0.057 -0.56442,0 -0.98545,-0.2268 -1.26563,-0.6816 -0.27612,-0.4589 -0.41406,-1.1687 -0.41406,-2.127 l 0,-1.8027 c 0.008,-0.9015 0.14427,-1.5694 0.4082,-2.0039 0.26394,-0.4345 0.68317,-0.6504 1.25977,-0.6504 0.16146,0 0.30803,0.021 0.44531,0.055 l 0,-0.9434 c -0.14503,-0.017 -0.28629,-0.037 -0.44531,-0.037 z"
       id="path4201"
       inkscape:connector-curvature="0"
       inkscape:export-filename="/Users/whiskey/Programs/tm/src/Tape/sprite.png"
       inkscape:export-xdpi="90"
       inkscape:export-ydpi="90" />
    <text
       inkscape:export-ydpi="90"
       inkscape:export-xdpi="90"
       inkscape:export-filename="/Users/whiskey/Programs/tm/src/Tape/sprite.png"
       sodipodi:linespacing="125%"
       id="text4216"
       y="1039.6542"
       x="87.303459"
       style="font-style:normal;font-weight:normal;font-size:12.47409058px;line-height:125%;font-family:sans-serif;letter-spacing:0px;word-spacing:0px;fill:#5d544e;fill-opacity:1;stroke:none;stroke-width:1px;stroke-linecap:butt;stroke-linejoin:miter;stroke-opacity:1;"
       xml:space="preserve"><tspan
         style="font-style:normal;font-variant:normal;font-weight:normal;font-stretch:normal;font-family:Roboto;-inkscape-font-specification:Roboto;fill:#5d544e;fill-opacity:1;"
         y="1039.6542"
         x="87.303459"
         id="tspan4218"
         sodipodi:role="line">1</tspan></text>
    <text
       xml:space="preserve"
       style="font-style:normal;font-weight:normal;font-size:7.34387541px;line-height:125%;font-family:sans-serif;letter-spacing:0px;word-spacing:0px;fill:#a6a09b;fill-opacity:1;stroke:none;stroke-width:1px;stroke-linecap:butt;stroke-linejoin:miter;stroke-opacity:1;"
       x="111.85025"
       y="1037.8582"
       id="text4231"
       sodipodi:linespacing="125%"
       inkscape:export-filename="/Users/whiskey/Programs/tm/src/Tape/sprite.png"
       inkscape:export-xdpi="90"
       inkscape:export-ydpi="90"><tspan
         sodipodi:role="line"
         id="tspan4233"
         x="111.85025"
         y="1037.8582"
         style="font-style:normal;font-variant:normal;font-weight:normal;font-stretch:normal;font-family:Roboto;-inkscape-font-specification:Roboto;fill:#a6a09b;fill-opacity:1;">∅</tspan></text>
    <path
       id="path4235"
       d="m 82.676727,1030.665 c -0.241331,0 -0.466624,0.019 -0.675781,0.059 l 0,1.0039 c 0.195432,-0.087 0.417721,-0.1367 0.675781,-0.1367 0.580663,0 1.00544,0.2177 1.273438,0.6562 0.267998,0.4345 0.40039,1.1297 0.40039,2.084 l 0,1.8457 c -0.01218,0.9258 -0.153722,1.6028 -0.425781,2.0332 -0.267998,0.4305 -0.680029,0.6465 -1.236328,0.6465 -0.260556,0 -0.487517,-0.054 -0.6875,-0.1504 l 0,1.0039 c 0.213015,0.042 0.441182,0.066 0.6875,0.066 0.958296,0 1.662557,-0.3213 2.113281,-0.9629 0.450724,-0.6415 0.675782,-1.6217 0.675782,-2.9414 l 0,-1.4629 c -0.01218,-1.275 -0.242636,-2.2171 -0.69336,-2.8262 -0.450724,-0.6131 -1.153186,-0.9179 -2.107422,-0.9179 z"
       style="font-style:normal;font-variant:normal;font-weight:normal;font-stretch:normal;font-size:medium;line-height:125%;font-family:Roboto;-inkscape-font-specification:Roboto;letter-spacing:0px;word-spacing:0px;fill:#5d544e;fill-opacity:1;stroke:none;stroke-width:1px;stroke-linecap:butt;stroke-linejoin:miter;stroke-opacity:1"
       inkscape:connector-curvature="0"
       inkscape:export-filename="/Users/whiskey/Programs/tm/src/Tape/sprite.png"
       inkscape:export-xdpi="90"
       inkscape:export-ydpi="90" />
    <path
       id="path4237"
       d="m 123.55563,1030.665 c -0.96235,0 -1.66841,0.3158 -2.11914,0.9492 -0.45072,0.6335 -0.67578,1.6028 -0.67578,2.9062 l 0,1.5039 c 0.0162,1.2466 0.25224,2.1851 0.70703,2.8145 0.45478,0.6253 1.15349,0.9375 2.09961,0.9375 0.15461,0 0.2922,-0.022 0.43359,-0.039 l 0,-0.9375 c -0.13395,0.034 -0.27671,0.057 -0.43359,0.057 -0.56442,0 -0.98545,-0.2269 -1.26563,-0.6817 -0.27612,-0.4588 -0.41406,-1.1686 -0.41406,-2.1269 l 0,-1.8027 c 0.008,-0.9015 0.14427,-1.5695 0.4082,-2.004 0.26394,-0.4344 0.68317,-0.6503 1.25977,-0.6503 0.16146,0 0.30803,0.021 0.44531,0.055 l 0,-0.9433 c -0.14503,-0.017 -0.28629,-0.037 -0.44531,-0.037 z"
       style="font-style:normal;font-variant:normal;font-weight:normal;font-stretch:normal;font-size:medium;line-height:125%;font-family:Roboto;-inkscape-font-specification:Roboto;letter-spacing:0px;word-spacing:0px;fill:#5d544e;fill-opacity:1;stroke:none;stroke-width:1px;stroke-linecap:butt;stroke-linejoin:miter;stroke-opacity:1"
       inkscape:connector-curvature="0"
       inkscape:export-filename="/Users/whiskey/Programs/tm/src/Tape/sprite.png"
       inkscape:export-xdpi="90"
       inkscape:export-ydpi="90" />
    <path
       style="fill:#ffb438;fill-opacity:0.19108281;fill-rule:evenodd;stroke:none;stroke-width:1px;stroke-linecap:butt;stroke-linejoin:miter;stroke-opacity:1"
       d="m 159,1008.3622 0,54 -35,0 0,-54 z"
       id="path5008"
       inkscape:connector-curvature="0"
       inkscape:export-filename="/Users/whiskey/Programs/tm/src/Tape/sprite.png"
       inkscape:export-xdpi="90"
       inkscape:export-ydpi="90"
       sodipodi:nodetypes="ccccc" />
    <path
       sodipodi:nodetypes="ccccc"
       inkscape:export-ydpi="90"
       inkscape:export-xdpi="90"
       inkscape:export-filename="/Users/whiskey/Programs/tm/src/Tape/sprite.png"
       inkscape:connector-curvature="0"
       id="path5010"
       d="m 194,1008.3622 0,54 -35,0 0,-54 z"
       style="fill:#ffb438;fill-opacity:0.3566879;fill-rule:evenodd;stroke:none;stroke-width:1px;stroke-linecap:butt;stroke-linejoin:miter;stroke-opacity:1" />
    <path
       style="fill:#ffb438;fill-opacity:0.58598727;fill-rule:evenodd;stroke:none;stroke-width:1px;stroke-linecap:butt;stroke-linejoin:miter;stroke-opacity:1"
       d="m 229,1008.3622 0,54 -35,0 0,-54 z"
       id="path5012"
       inkscape:connector-curvature="0"
       inkscape:export-filename="/Users/whiskey/Programs/tm/src/Tape/sprite.png"
       inkscape:export-xdpi="90"
       inkscape:export-ydpi="90"
       sodipodi:nodetypes="ccccc" />
    <path
       sodipodi:nodetypes="ccccc"
       inkscape:export-ydpi="90"
       inkscape:export-xdpi="90"
       inkscape:export-filename="/Users/whiskey/Programs/tm/src/Tape/sprite.png"
       inkscape:connector-curvature="0"
       id="path5014"
       d="m 264,1008.3622 0,54 -35,0 0,-54 z"
       style="fill:#ffb438;fill-opacity:0.77707005;fill-rule:evenodd;stroke:none;stroke-width:1px;stroke-linecap:butt;stroke-linejoin:miter;stroke-opacity:1" />
  </g>
</svg>
